SplineFontDB: 3.2
FontName: linja_laso
FullName: linja laso
FamilyName: linja laso
Weight: Regular
Copyright: Copyright (c) 2025, mute ante
UComments: "2025-10-6: Created with FontForge (http://fontforge.org)"
Version: 000.9.1
ItalicAngle: 0
UnderlinePosition: -62
UnderlineWidth: 30
Ascent: 576
Descent: 64
InvalidEm: 0
LayerCount: 2
Layer: 0 0 "Back" 1
Layer: 1 0 "Fore" 0
XUID: [1021 625 390183797 7571542]
FSType: 0
OS2Version: 0
OS2_WeightWidthSlopeOnly: 0
OS2_UseTypoMetrics: 1
CreationTime: 1759787008
ModificationTime: 1759791242
PfmFamily: 17
TTFWeight: 400
TTFWidth: 5
LineGap: 59
VLineGap: 0
OS2TypoAscent: 0
OS2TypoAOffset: 1
OS2TypoDescent: 0
OS2TypoDOffset: 1
OS2TypoLinegap: 59
OS2WinAscent: 0
OS2WinAOffset: 1
OS2WinDescent: 0
OS2WinDOffset: 1
HheadAscent: 0
HheadAOffset: 1
HheadDescent: 0
HheadDOffset: 1
OS2Vendor: 'PfEd'
Lookup: 4 0 1 "LIGA0 sitelen pona" { "LIGA0 sitelen pona-1"  } ['liga' ('DFLT' <'dflt' > 'latn' <'dflt' > ) ]
MarkAttachClasses: 1
DEI: 91125
LangName: 1033
Encoding: UnicodeFull
Compacted: 1
UnicodeInterp: none
NameList: AGL For New Fonts
DisplaySize: -96
AntiAlias: 1
FitToEm: 0
WinInfo: 0 9 8
BeginPrivate: 0
EndPrivate
TeXData: 1 0 0 346030 173015 115343 0 1048576 115343 783286 444596 497025 792723 393216 433062 380633 303038 157286 324010 404750 52429 2506097 1059062 262144
BeginChars: 1114112 121

StartChar: t.a
Encoding: 989440 989440 0
Width: 672
VWidth: 1024
Flags: W
HStem: -8.00391 64.0039<273.235 351.467 464.644 504.026> 184.008 64.0049<273.235 350.81>
VStem: 184.031 64.0039<81.2185 158.794> 280.005 64<303.995 511.995> 376.019 64.0039<80.4923 158.073>
LayerCount: 2
Fore
SplineSet
312.014648438 248.012695312 m 0
 382.71875 248.012695312 440.022460938 190.708984375 440.022460938 120.00390625 c 0
 440.022460938 84.6640625 468.686523438 56 504.026367188 56 c 1
 504.026367188 -8.00390625 l 1
 465.784179688 -8.00390625 431.484375 8.7587890625 408.020507812 35.3427734375 c 1
 384.557617188 8.6865234375 350.2578125 -8.00390625 312.014648438 -8.00390625 c 0
 241.333984375 -8.00390625 184.03125 49.32421875 184.03125 120.00390625 c 0
 184.03125 190.708984375 241.333984375 248.012695312 312.014648438 248.012695312 c 0
312.014648438 184.0078125 m 0
 276.674804688 184.0078125 248.03515625 155.344726562 248.03515625 120.00390625 c 0
 248.03515625 84.6640625 276.674804688 56 312.014648438 56 c 0
 347.37890625 56 376.018554688 84.6640625 376.018554688 120.00390625 c 0
 376.018554688 155.344726562 347.37890625 184.0078125 312.014648438 184.0078125 c 0
280.004882812 303.995117188 m 1
 280.004882812 511.995117188 l 1
 344.004882812 511.995117188 l 1
 344.004882812 303.995117188 l 1
 280.004882812 303.995117188 l 1
EndSplineSet
Validated: 1
EndChar

StartChar: t.akesi
Encoding: 989441 989441 1
Width: 672
VWidth: 1024
Flags: W
HStem: -8 63.998<297.95 374.076> 119.998 64<144.011 208.011 272.011 400.011 464.013 528.011> 247.996 63.999<144.011 208.011 272.011 400.011 464.011 528.011> 375.996 63.998<297.222 374.799> 439.99 80<201.773 262.264 409.765 470.256>
VStem: 192.019 80<449.744 510.236> 208.011 64<81.935 119.998 183.998 247.996 311.995 350.058> 400.011 80<449.744 510.236> 400.011 64<81.935 119.998 183.998 247.996 311.995 350.058>
LayerCount: 2
Fore
SplineSet
232.018554688 519.990234375 m 0xec
 254.109375 519.990234375 272.018554688 502.081054688 272.018554688 479.990234375 c 0
 272.018554688 457.8984375 254.109375 439.990234375 232.018554688 439.990234375 c 0
 209.926757812 439.990234375 192.018554688 457.8984375 192.018554688 479.990234375 c 0
 192.018554688 502.081054688 209.926757812 519.990234375 232.018554688 519.990234375 c 0xec
440.010742188 519.990234375 m 0
 462.1015625 519.990234375 480.010742188 502.081054688 480.010742188 479.990234375 c 0
 480.010742188 457.8984375 462.1015625 439.990234375 440.010742188 439.990234375 c 0
 417.918945312 439.990234375 400.010742188 457.8984375 400.010742188 479.990234375 c 0xe9
 400.010742188 502.081054688 417.918945312 519.990234375 440.010742188 519.990234375 c 0
336.010742188 439.994140625 m 0xf280
 406.702148438 439.994140625 464.009765625 382.6875 464.010742188 311.995117188 c 1
 528.010742188 311.995117188 l 1
 528.010742188 247.99609375 l 1
 464.010742188 247.99609375 l 1
 464.010742188 183.998046875 l 1
 528.010742188 183.998046875 l 1
 528.010742188 119.998046875 l 1
 464.012695312 119.998046875 l 1
 464.01171875 49.3056640625 406.704101562 -8 336.012695312 -8 c 0
 265.3203125 -8 208.013671875 49.3056640625 208.01171875 119.998046875 c 1
 144.010742188 119.998046875 l 1
 144.010742188 183.998046875 l 1
 208.010742188 183.998046875 l 1
 208.010742188 247.99609375 l 1
 144.010742188 247.99609375 l 1
 144.010742188 311.995117188 l 1
 208.010742188 311.995117188 l 1
 208.01171875 382.6875 265.318359375 439.994140625 336.010742188 439.994140625 c 0xf280
336.010742188 375.99609375 m 0
 300.663085938 375.99609375 272.008789062 347.342773438 272.0078125 311.995117188 c 1
 400.01171875 311.995117188 l 1
 400.01171875 347.342773438 371.357421875 375.99609375 336.010742188 375.99609375 c 0
272.010742188 247.99609375 m 1
 272.010742188 183.998046875 l 1
 400.010742188 183.998046875 l 1
 400.010742188 247.99609375 l 1
 272.010742188 247.99609375 l 1
272.010742188 119.998046875 m 1
 272.01171875 84.6513671875 300.666015625 55.998046875 336.012695312 55.998046875 c 0
 371.359375 55.9970703125 400.013671875 84.6513671875 400.014648438 119.998046875 c 1
 272.010742188 119.998046875 l 1
EndSplineSet
Validated: 33
EndChar

StartChar: t.ala
Encoding: 989442 989442 2
Width: 672
VWidth: 1024
Flags: W
LayerCount: 2
Fore
SplineSet
154.973632812 482.274414062 m 1
 336.00390625 301.244140625 l 1
 517.009765625 482.274414062 l 1
 562.267578125 437.017578125 l 1
 381.237304688 256.010742188 l 1
 562.267578125 74.98046875 l 1
 517.009765625 29.72265625 l 1
 336.00390625 210.752929688 l 1
 154.973632812 29.72265625 l 1
 109.715820312 74.98046875 l 1
 290.74609375 256.010742188 l 1
 109.715820312 437.017578125 l 1
 154.973632812 482.274414062 l 1
EndSplineSet
Validated: 1
EndChar

StartChar: t.alasa
Encoding: 989443 989443 3
Width: 672
VWidth: 1024
Flags: W
HStem: 0.0488281 21G<144.004 210.278> 225.641 60.7617<48.0039 144.004 208.027 322.538> 228.809 54.4434<259.357 334.057 397.172 528.016>
VStem: 144.004 64.0234<75.0469 225.641 286.402 437.061> 334.057 64.6191<182.947 228.809 283.252 329.126>
LayerCount: 2
Fore
SplineSet
144.00390625 512.05859375 m 1xd8
 276.568359375 512.0546875 385.5859375 411.291015625 398.677734375 282.1796875 c 1
 528.015625 280.03515625 l 1
 424.001953125 368.05859375 l 1
 472.017578125 416.048828125 l 1
 632.00390625 256.0390625 l 1
 472.017578125 96.052734375 l 1
 424.001953125 144.044921875 l 1
 528.015625 232.04296875 l 1
 398.67578125 229.88671875 l 1
 385.572265625 100.793945312 276.552734375 0.048828125 144.00390625 0.048828125 c 1
 144.00390625 225.640625 l 1
 48.00390625 224.0390625 l 1
 48.00390625 287.994140625 l 1
 144.00390625 286.40234375 l 1
 144.00390625 512.05859375 l 1xd8
208.02734375 437.060546875 m 1
 208.02734375 285.341796875 l 1
 334.0625 283.251953125 l 1xb8
 324.07421875 353.221679688 276.051757812 412.995117188 208.02734375 437.060546875 c 1
334.056640625 228.80859375 m 1
 208.02734375 226.70703125 l 1
 208.02734375 75.046875 l 1
 276.036132812 99.107421875 324.056640625 158.858398438 334.056640625 228.80859375 c 1
EndSplineSet
Validated: 1
EndChar

StartChar: t.ale
Encoding: 989444 989444 4
Width: 672
VWidth: 1024
Flags: W
HStem: 128.005 64.1738<153.219 231.331 439.983 518.802> 319.993 64.0039<153.942 230.829 441.188 518.075>
VStem: 64.0156 64.0039<217.301 294.881> 544.021 63.9795<217.205 294.784>
LayerCount: 2
Fore
SplineSet
191.999023438 383.997070312 m 0
 223.493164062 383.997070312 253.875 372.434570312 277.337890625 351.389648438 c 2
 336.020507812 298.923828125 l 1
 394.678710938 351.389648438 l 2
 418.141601562 372.38671875 448.5234375 383.997070312 480.017578125 383.997070312 c 0
 550.697265625 383.997070312 608.000976562 326.693359375 608.000976562 255.989257812 c 0
 608.000976562 185.30859375 550.697265625 128.004882812 480.017578125 128.004882812 c 0
 448.5234375 128.004882812 418.141601562 139.54296875 394.678710938 160.587890625 c 2
 336.020507812 213.078125 l 1
 277.337890625 160.587890625 l 2
 253.875 139.616210938 223.493164062 128.004882812 191.999023438 128.004882812 c 0
 121.319335938 128.004882812 64.015625 185.30859375 64.015625 255.989257812 c 0
 64.015625 326.693359375 121.319335938 383.997070312 191.999023438 383.997070312 c 0
191.999023438 319.993164062 m 1
 191.999023438 320.186523438 l 1
 156.659179688 320.186523438 128.01953125 291.546875 128.01953125 256.182617188 c 0
 128.01953125 220.841796875 156.659179688 192.178710938 191.999023438 192.178710938 c 0
 207.74609375 192.178710938 222.815429688 197.983398438 234.668945312 208.384765625 c 2
 288.004882812 256.0859375 l 1
 234.668945312 303.786132812 l 2
 222.936523438 314.1875 207.721679688 319.993164062 191.999023438 319.993164062 c 1
480.017578125 319.993164062 m 1
 480.017578125 319.799804688 l 1
 464.270507812 319.799804688 448.958984375 313.994140625 437.34765625 303.592773438 c 2
 384.010742188 255.892578125 l 1
 437.34765625 208.19140625 l 2
 449.079101562 197.790039062 464.294921875 191.984375 480.017578125 191.984375 c 0
 515.357421875 191.984375 544.021484375 220.649414062 544.021484375 255.989257812 c 0
 544.021484375 291.353515625 515.357421875 319.993164062 480.017578125 319.993164062 c 1
EndSplineSet
Validated: 1
EndChar

StartChar: t.anpa
Encoding: 989445 989445 5
Width: 672
VWidth: 1024
Flags: W
HStem: 39.999 96<302.065 369.935> 191.982 192.015<144.004 208.008 464 528.004> 191.982 64.0068<208.008 464>
VStem: 144.004 64.0039<255.989 383.997> 288 96<54.0645 121.933> 464 64.0039<255.989 383.997>
LayerCount: 2
Fore
SplineSet
144.00390625 383.997070312 m 1xdc
 208.0078125 383.997070312 l 1xdc
 208.0078125 255.989257812 l 1
 464 255.989257812 l 1xbc
 464 383.997070312 l 1
 528.00390625 383.997070312 l 1
 528.00390625 191.982421875 l 1
 144.00390625 191.982421875 l 1
 144.00390625 383.997070312 l 1xdc
336 135.999023438 m 0
 362.4921875 135.999023438 384 114.490234375 384 87.9990234375 c 0
 384 61.5068359375 362.4921875 39.9990234375 336 39.9990234375 c 0
 309.5078125 39.9990234375 288 61.5068359375 288 87.9990234375 c 0
 288 114.490234375 309.5078125 135.999023438 336 135.999023438 c 0
EndSplineSet
Validated: 1
EndChar

StartChar: t.ante
Encoding: 989446 989446 6
Width: 672
VWidth: 1024
Flags: W
HStem: 0.00195312 21G<106.423 149.464 522.536 565.577>
LayerCount: 2
Fore
SplineSet
120 512.001953125 m 1
 336 365.3828125 l 1
 552 512.001953125 l 1
 587.9453125 459.052734375 l 1
 336 288.001953125 l 1
 84.0546875 459.052734375 l 1
 120 512.001953125 l 1
336 224.001953125 m 1
 587.9453125 52.951171875 l 1
 552 0.001953125 l 1
 336 146.62109375 l 1
 120 0.001953125 l 1
 84.0546875 52.951171875 l 1
 336 224.001953125 l 1
EndSplineSet
Validated: 1
EndChar

StartChar: t.anu
Encoding: 989447 989447 7
Width: 672
VWidth: 1024
Flags: W
VStem: 303.989 64.0049<15.9961 264.478>
LayerCount: 2
Fore
SplineSet
154.9609375 503.997070312 m 1
 335.991210938 322.966796875 l 1
 517.021484375 503.997070312 l 1
 562.279296875 458.739257812 l 1
 367.994140625 264.477539062 l 1
 367.994140625 15.99609375 l 1
 303.989257812 15.99609375 l 1
 303.989257812 264.477539062 l 1
 109.727539062 458.739257812 l 1
 154.9609375 503.997070312 l 1
EndSplineSet
Validated: 1
EndChar

StartChar: t.awen
Encoding: 989448 989448 8
Width: 672
VWidth: 1024
Flags: W
HStem: -0.00390625 64.0039<80.0039 190.232 481.782 592.004>
LayerCount: 2
Fore
SplineSet
304.00390625 511.99609375 m 1
 368.0078125 511.99609375 l 1
 481.782226562 64 l 1
 592.00390625 63.9970703125 l 1
 592.00390625 -0.00390625 l 1
 432.001953125 -0.00390625 l 1
 335.99609375 377.997070312 l 1
 240.013671875 -0.00390625 l 1
 80.00390625 -0.00390625 l 1
 80.00390625 64 l 1
 190.232421875 64 l 1
 304.00390625 511.99609375 l 1
EndSplineSet
Validated: 1
EndChar

StartChar: t.e
Encoding: 989449 989449 9
Width: 672
VWidth: 1024
Flags: W
HStem: 0.00683594 21G<92.0092 132.009 316.001 356.002>
LayerCount: 2
Fore
SplineSet
336.000976562 512.008789062 m 1
 591.993164062 255.991210938 l 1
 336.000976562 0.0087890625 l 1
 290.744140625 45.2666015625 l 1
 501.501953125 255.991210938 l 1
 290.744140625 466.750976562 l 1
 336.000976562 512.008789062 l 1
112.008789062 512.006835938 m 1
 368.000976562 255.991210938 l 1
 112.008789062 0.0068359375 l 1
 66.751953125 45.2646484375 l 1
 277.510742188 255.991210938 l 1
 66.751953125 466.749023438 l 1
 112.008789062 512.006835938 l 1
EndSplineSet
Validated: 1
EndChar

StartChar: t.en
Encoding: 989450 989450 10
Width: 672
VWidth: 1024
Flags: W
HStem: 224.022 63.9795<160.005 304.002 368.006 512.003>
VStem: 304.002 64.0039<80.001 224.022 288.002 431.999>
LayerCount: 2
Fore
SplineSet
304.001953125 431.999023438 m 1
 368.005859375 431.999023438 l 1
 368.005859375 288.001953125 l 1
 512.002929688 288.001953125 l 1
 512.002929688 224.022460938 l 1
 368.005859375 224.022460938 l 1
 368.005859375 80.0009765625 l 1
 304.001953125 80.0009765625 l 1
 304.001953125 224.022460938 l 1
 160.004882812 224.022460938 l 1
 160.004882812 288.001953125 l 1
 304.001953125 288.001953125 l 1
 304.001953125 431.999023438 l 1
EndSplineSet
Validated: 1
EndChar

StartChar: t.esun
Encoding: 989451 989451 11
Width: 672
VWidth: 1024
Flags: W
HStem: 0.00488281 63.8516<169.217 247.638> 191.898 64.167<169.217 249.264> 255.92 64.166<422.738 502.785> 448.129 63.875<424.363 502.785>
VStem: 80.001 64.0029<89.1615 166.757> 527.998 64.0029<345.239 422.835>
LayerCount: 2
Fore
SplineSet
270.897460938 115.973632812 m 2xdc
 338.21484375 407.794921875 l 2
 349.365234375 467.122070312 401.443359375 512.00390625 463.995117188 512.00390625 c 0
 534.698242188 512.00390625 592.000976562 454.685546875 592.000976562 383.961914062 c 0
 592.000976562 313.262695312 534.698242188 255.919921875 463.995117188 255.919921875 c 0
 441.741210938 255.919921875 420.74609375 261.7265625 402.604492188 271.646484375 c 2
 80.0009765625 448.03125 l 1
 110.599609375 504.26171875 l 1
 433.299804688 327.829101562 l 2
 442.466796875 322.989257812 452.868164062 320.0859375 463.995117188 320.0859375 c 0xbc
 499.334960938 320.0859375 527.998046875 348.7578125 527.998046875 384.107421875 c 0
 527.998046875 419.45703125 499.334960938 448.12890625 463.995117188 448.12890625 c 0
 432.71875 448.12890625 406.66796875 425.674804688 401.104492188 396.01171875 c 2
 333.787109375 104.213867188 l 2
 322.63671875 44.88671875 270.55859375 0.0048828125 208.006835938 0.0048828125 c 0
 137.303710938 0.0048828125 80.0009765625 57.3232421875 80.0009765625 128.046875 c 0
 80.0009765625 198.74609375 137.303710938 256.065429688 208.006835938 256.065429688 c 0
 230.259765625 256.065429688 251.255859375 250.2578125 269.397460938 240.337890625 c 2
 592.000976562 63.953125 l 1
 561.40234375 7.72265625 l 1
 238.702148438 184.15625 l 2
 229.534179688 188.995117188 219.133789062 191.8984375 208.006835938 191.8984375 c 0
 172.666992188 191.8984375 144.00390625 163.2265625 144.00390625 127.876953125 c 0
 144.00390625 92.52734375 172.666992188 63.8564453125 208.006835938 63.8564453125 c 0
 239.283203125 63.8564453125 265.333984375 86.3095703125 270.897460938 115.973632812 c 2xdc
EndSplineSet
Validated: 5
EndChar

StartChar: t.ijo
Encoding: 989452 989452 12
Width: 672
VWidth: 1024
Flags: W
HStem: -7.99609 64.0039<263.259 408.798> 455.997 64.0039<263.259 408.798>
VStem: 72.0303 64.0039<183.233 328.773> 536.023 64.0039<183.233 328.773>
LayerCount: 2
Fore
SplineSet
336.028320312 520.000976562 m 0
 481.733398438 520 600.026367188 401.70703125 600.02734375 256.002929688 c 0
 600.026367188 110.298828125 481.733398438 -7.9951171875 336.028320312 -7.99609375 c 0
 190.32421875 -7.9951171875 72.03125 110.298828125 72.0302734375 256.002929688 c 0
 72.03125 401.70703125 190.32421875 520 336.028320312 520.000976562 c 0
336.028320312 455.997070312 m 0
 225.650390625 455.994140625 136.037109375 366.380859375 136.034179688 256.002929688 c 0
 136.037109375 145.624023438 225.650390625 56.01171875 336.028320312 56.0078125 c 0
 446.407226562 56.01171875 536.01953125 145.624023438 536.0234375 256.002929688 c 0
 536.01953125 366.380859375 446.407226562 455.994140625 336.028320312 455.997070312 c 0
EndSplineSet
Validated: 1
EndChar

StartChar: t.ike
Encoding: 989453 989453 13
Width: 672
VWidth: 1024
Flags: W
HStem: 319.98 64.0039<274.226 397.767>
VStem: 112.004 64.0049<159.994 221.284> 496.004 64.0049<159.994 221.285>
LayerCount: 2
Fore
SplineSet
335.994140625 383.984375 m 0
 459.620117188 383.984375 560.002929688 283.619140625 560.008789062 159.994140625 c 1
 560.008789062 159.994140625 495.994140625 159.995117188 496.00390625 159.994140625 c 1
 495.99609375 248.293945312 424.295898438 319.98046875 335.994140625 319.98046875 c 0
 247.69921875 319.97265625 176.016601562 248.2890625 176.008789062 159.994140625 c 1
 176.008789062 159.994140625 112.004882812 159.995117188 112.00390625 159.994140625 c 1
 112.009765625 283.615234375 212.373046875 383.978515625 335.994140625 383.984375 c 0
EndSplineSet
Validated: 37
EndChar

StartChar: t.ilo
Encoding: 989454 989454 14
Width: 672
VWidth: 1024
Flags: W
HStem: -0.00488281 21G<304.004 368.004> 255.985 64.0039<144.006 304.004 368.004 528.006> 447.997 64.0039<144.006 304.004 368.004 528.006>
VStem: 80.002 64.0039<319.989 447.997> 304.004 64<-0.00488281 255.985 319.989 447.997> 528.006 64.0039<319.989 447.997>
LayerCount: 2
Fore
SplineSet
80.001953125 512.000976562 m 1
 592.009765625 512.000976562 l 1
 592.009765625 255.985351562 l 1
 368.00390625 255.985351562 l 1
 368.00390625 -0.0048828125 l 1
 304.00390625 -0.0048828125 l 1
 304.00390625 255.985351562 l 1
 80.001953125 255.985351562 l 1
 80.001953125 512.000976562 l 1
144.005859375 447.997070312 m 1
 144.005859375 319.989257812 l 1
 304.00390625 319.989257812 l 1
 304.00390625 447.997070312 l 1
 144.005859375 447.997070312 l 1
368.00390625 447.997070312 m 1
 368.00390625 319.989257812 l 1
 528.005859375 319.989257812 l 1
 528.005859375 447.997070312 l 1
 368.00390625 447.997070312 l 1
EndSplineSet
Validated: 1
EndChar

StartChar: t.insa
Encoding: 989455 989455 15
Width: 672
VWidth: 1024
Flags: W
HStem: 127.979 64.0039<207.984 464> 255.993 96<302.076 369.944>
VStem: 144.004 63.9805<191.983 383.995> 288.01 96<270.059 337.928> 464 64.0039<191.983 383.995>
LayerCount: 2
Fore
SplineSet
144.00390625 383.995117188 m 1
 207.984375 383.995117188 l 1
 207.984375 191.983398438 l 1
 464 191.983398438 l 1
 464 383.995117188 l 1
 528.00390625 383.995117188 l 1
 528.00390625 127.979492188 l 1
 144.00390625 127.979492188 l 1
 144.00390625 383.995117188 l 1
336.009765625 351.993164062 m 0
 362.501953125 351.993164062 384.009765625 330.485351562 384.009765625 303.993164062 c 0
 384.009765625 277.500976562 362.501953125 255.993164062 336.009765625 255.993164062 c 0
 309.518554688 255.993164062 288.009765625 277.500976562 288.009765625 303.993164062 c 0
 288.009765625 330.485351562 309.518554688 351.993164062 336.009765625 351.993164062 c 0
EndSplineSet
Validated: 1
EndChar

StartChar: t.jaki
Encoding: 989456 989456 16
Width: 672
VWidth: 1024
Flags: W
HStem: -0.00585938 64.0049<321.31 528.004> 143.991 64.0049<300.652 350.699> 304.002 64.0039<321.31 371.381> 447.999 64.0039<144.004 350.699>
LayerCount: 2
Fore
SplineSet
144.00390625 512.002929688 m 1
 528.00390625 512.002929688 l 1
 528.00390625 447.999023438 l 1
 321.309570312 368.005859375 l 1
 528.00390625 368.005859375 l 1
 528.00390625 295.995117188 l 1
 300.65234375 207.99609375 l 1
 528.00390625 207.99609375 l 1
 528.00390625 143.991210938 l 1
 321.309570312 63.9990234375 l 1
 528.00390625 63.9990234375 l 1
 528.00390625 -0.005859375 l 1
 144.00390625 -0.005859375 l 1
 144.00390625 63.9990234375 l 1
 350.69921875 143.991210938 l 1
 144.00390625 143.991210938 l 1
 144.00390625 216.001953125 l 1
 371.380859375 304.001953125 l 1
 144.00390625 304.001953125 l 1
 144.00390625 368.005859375 l 1
 350.69921875 447.999023438 l 1
 144.00390625 447.999023438 l 1
 144.00390625 512.002929688 l 1
EndSplineSet
Validated: 1
EndChar

StartChar: t.jan
Encoding: 989457 989457 17
Width: 672
VWidth: 1024
Flags: W
HStem: -0.00292969 21G<144.004 225.554 446.455 528.004> 135.997 63.999<282.604 389.405> 455.994 64.0029<278.909 393.099>
VStem: 144.004 64<270.63 385.68> 464.005 63.999<270.63 385.68>
LayerCount: 2
Fore
SplineSet
336.00390625 519.997070312 m 0
 442.04296875 519.997070312 528.00390625 434.03515625 528.00390625 327.997070312 c 0
 528.00390625 261.807617188 494.51171875 203.44140625 443.548828125 168.920898438 c 1
 528.00390625 -0.0029296875 l 1
 456.454101562 -0.0029296875 l 1
 385.270507812 142.375976562 l 1
 369.547851562 138.213867188 353.03515625 135.997070312 336.00390625 135.997070312 c 0
 318.973632812 135.997070312 302.4609375 138.213867188 286.73828125 142.375976562 c 1
 215.5546875 -0.0029296875 l 1
 144.00390625 -0.0029296875 l 1
 228.458984375 168.920898438 l 1
 177.497070312 203.44140625 144.00390625 261.807617188 144.00390625 327.997070312 c 0
 144.00390625 434.03515625 229.965820312 519.997070312 336.00390625 519.997070312 c 0
336.00390625 455.994140625 m 0
 265.3125 455.995117188 208.004882812 398.688476562 208.00390625 327.997070312 c 0
 208.00390625 257.303710938 265.311523438 199.99609375 336.00390625 199.99609375 c 0
 406.697265625 199.99609375 464.004882812 257.303710938 464.004882812 327.997070312 c 0
 464.002929688 398.688476562 406.696289062 455.995117188 336.00390625 455.994140625 c 0
EndSplineSet
Validated: 33
EndChar

StartChar: t.jelo
Encoding: 989458 989458 18
Width: 672
VWidth: 1024
Flags: W
HStem: -0.00390625 63.9805<234.524 437.493> 287.969 64<112.013 215.916 456.101 560.032> 383.973 160.016<304.148 367.863>
VStem: 112.013 160.004<288.112 351.833> 304.001 64<440.071 543.988> 400.001 160.031<288.112 351.833>
LayerCount: 2
Fore
SplineSet
304.000976562 543.98828125 m 1
 368.000976562 543.98828125 l 1
 368.000976562 443.943359375 l 1
 412.986328125 432.3671875 448.397460938 396.955078125 459.973632812 351.96875 c 1
 560.032226562 351.96875 l 1
 560.032226562 287.96875 l 1
 459.971679688 287.96875 l 1
 450.237304688 250.159179688 423.658203125 219.112304688 388.706054688 203.302734375 c 1
 592.012695312 -0.00390625 l 1
 80.0048828125 -0.00390625 l 1
 283.293945312 203.306640625 l 1
 248.353515625 219.1171875 221.778320312 250.162109375 212.045898438 287.96875 c 1
 112.012695312 287.96875 l 1
 112.012695312 351.96875 l 1
 212.043945312 351.96875 l 1
 223.619140625 396.954101562 259.028320312 432.366210938 304.000976562 443.943359375 c 1
 304.000976562 543.98828125 l 1
335.997070312 383.97265625 m 0
 300.657226562 383.97265625 272.016601562 355.331054688 272.016601562 319.966796875 c 0
 272.016601562 284.626953125 300.657226562 255.962890625 335.997070312 255.962890625 c 0
 371.361328125 255.962890625 400.000976562 284.626953125 400.000976562 319.966796875 c 0
 400.000976562 355.331054688 371.361328125 383.97265625 335.997070312 383.97265625 c 0
335.997070312 165.47265625 m 1
 234.524414062 63.9765625 l 1
 437.493164062 63.9765625 l 1
 335.997070312 165.47265625 l 1
EndSplineSet
Validated: 1
EndChar

StartChar: t.jo
Encoding: 989459 989459 19
Width: 672
VWidth: 1024
Flags: W
HStem: -8.01367 64.0039<278.315 392.867> 143.99 64.0039<336.004 457.602> 263.991 64.0049<296.321 374.779> 456.003 64.0049<297.229 374.779>
VStem: 143.99 64.0059<126.309 241.447> 207.996 64.0039<352.503 430.775> 400.008 64.0039<353.224 430.775>
LayerCount: 2
Fore
SplineSet
336.00390625 520.0078125 m 0xf6
 406.649414062 520.0078125 464.01171875 462.64453125 464.01171875 392 c 0
 464.01171875 321.354492188 406.649414062 263.991210938 336.00390625 263.991210938 c 0
 308.221679688 263.991210938 282.3671875 272.930664062 261.375 287.991210938 c 1
 227.9921875 263.998046875 207.99609375 225.307617188 207.99609375 183.998046875 c 0
 207.99609375 113.29296875 265.299804688 55.990234375 336.00390625 55.990234375 c 0
 391.276367188 55.990234375 440.185546875 91.4755859375 457.6015625 143.990234375 c 1
 336.00390625 143.990234375 l 1
 336.00390625 207.994140625 l 1
 527.9921875 207.994140625 l 1
 527.9921875 175.9921875 l 1
 527.822265625 175.9921875 l 1
 523.541015625 73.1640625 438.928710938 -8.013671875 336.00390625 -8.013671875 c 0
 229.959960938 -8.013671875 143.990234375 77.953125 143.990234375 183.998046875 c 0xfa
 143.990234375 245.142578125 173.000976562 301.514648438 220.30078125 337.229492188 c 1
 212.455078125 353.805664062 207.99609375 372.45703125 207.99609375 392 c 0
 207.99609375 462.64453125 265.359375 520.0078125 336.00390625 520.0078125 c 0xf6
336.00390625 456.002929688 m 0
 300.681640625 456.002929688 272 427.322265625 272 392 c 0xf6
 272 356.676757812 300.681640625 327.99609375 336.00390625 327.99609375 c 0
 371.327148438 327.99609375 400.0078125 356.676757812 400.0078125 392 c 0
 400.0078125 427.322265625 371.327148438 456.002929688 336.00390625 456.002929688 c 0
EndSplineSet
Validated: 1
EndChar

StartChar: t.kala
Encoding: 989460 989460 20
Width: 672
VWidth: 1024
Flags: W
HStem: 79.9932 64.0039<337.738 476.84> 368.011 63.9805<337.739 476.84>
VStem: 72.0029 64.0039<79.9932 167.058 344.926 431.991> 535.996 64.0049<203.68 308.304>
LayerCount: 2
Fore
SplineSet
72.0029296875 431.991210938 m 1
 72.0029296875 431.991210938 136.153320312 431.7578125 136.006835938 431.991210938 c 1
 136.010742188 390.123046875 145.11328125 350.096679688 161.211914062 314.190429688 c 1
 225.701171875 386.549804688 319.545898438 431.991210938 424.001953125 431.991210938 c 0
 521.137695312 431.990234375 600 353.127929688 600.000976562 255.9921875 c 0
 600 158.85546875 521.137695312 79.9931640625 424.001953125 79.9931640625 c 0
 319.540039062 79.9970703125 225.698242188 125.447265625 161.211914062 197.817382812 c 1
 145.110351562 161.904296875 136.0078125 121.870117188 136.006835938 79.9931640625 c 1
 136.006835938 79.9931640625 72.2275390625 80.392578125 72.0029296875 79.9931640625 c 1
 72.2119140625 143.967773438 89.7470703125 204.345703125 119.825195312 255.9921875 c 1
 89.7470703125 307.637695312 72.2119140625 368.016601562 72.0029296875 431.991210938 c 1
424.001953125 368.010742188 m 0
 331.204101562 368.00390625 248.724609375 324.23828125 196.043945312 255.9921875 c 1
 248.729492188 187.754882812 331.20703125 143.998046875 424.001953125 143.997070312 c 0
 485.811523438 144 535.994140625 194.181640625 535.99609375 255.9921875 c 2
 535.99609375 256.010742188 l 2
 535.99609375 317.82421875 485.813476562 368.008789062 424.001953125 368.010742188 c 0
EndSplineSet
Validated: 33
EndChar

StartChar: t.kalama
Encoding: 989461 989461 21
Width: 672
VWidth: 1024
Flags: W
HStem: 15.9785 64.0039<278.326 393.646> 207.99 64.0039<207.976 463.993>
VStem: 143.997 63.9785<150.923 207.99> 304.007 64<368.004 512.004> 463.993 64.0039<150.921 207.99>
LayerCount: 2
Fore
SplineSet
304.006835938 512.00390625 m 1
 368.006835938 512.00390625 l 1
 368.006835938 368.00390625 l 1
 304.006835938 368.00390625 l 1
 304.006835938 512.00390625 l 1
471.325195312 486.5078125 m 1
 527.985351562 456.748046875 l 1
 461.030273438 329.26171875 l 1
 404.370117188 359.01953125 l 1
 471.325195312 486.5078125 l 1
200.659179688 485.76171875 m 1
 267.614257812 358.275390625 l 1
 210.954101562 328.517578125 l 1
 143.999023438 456.00390625 l 1
 200.659179688 485.76171875 l 1
143.997070312 271.994140625 m 1
 527.997070312 271.994140625 l 1
 527.997070312 271.994140625 527.985351562 207.978515625 527.997070312 207.990234375 c 1
 527.997070312 102.022460938 441.952148438 15.978515625 335.985351562 15.978515625 c 0
 230.022460938 15.9853515625 143.997070312 102.026367188 143.997070312 207.990234375 c 2
 143.997070312 271.994140625 l 1
207.975585938 207.990234375 m 1
 207.975585938 137.345703125 265.33984375 79.982421875 335.985351562 79.982421875 c 0
 406.629882812 79.982421875 463.993164062 137.345703125 463.993164062 207.990234375 c 1
 207.975585938 207.990234375 l 1
EndSplineSet
Validated: 33
EndChar

StartChar: t.kama
Encoding: 989462 989462 22
Width: 672
VWidth: 1024
Flags: W
HStem: -0.0126953 64.0039<96.0049 224.012>
VStem: 224.012 63.958<63.9912 405.298>
LayerCount: 2
Fore
SplineSet
288.004882812 511.99609375 m 1
 575.40625 128.745117188 l 1
 399.962890625 -0.0126953125 l 1
 362.325195312 51.7509765625 l 1
 485.786132812 141.540039062 l 1
 287.969726562 405.297851562 l 1
 287.969726562 -0.0126953125 l 1
 96.0048828125 -0.0126953125 l 1
 96.0048828125 63.9912109375 l 1
 224.01171875 63.9912109375 l 1
 224.01171875 511.99609375 l 1
 288.004882812 511.99609375 l 1
EndSplineSet
Validated: 1
EndChar

StartChar: t.kasi
Encoding: 989463 989463 23
Width: 672
VWidth: 1024
Flags: W
HStem: 224.017 64.0059<242.685 300.759 371.239 429.322> 415.966 64.0371<147.226 206.876 465.123 524.772>
VStem: 304.004 64.001<31.9932 224.017>
LayerCount: 2
Fore
SplineSet
80.013671875 448.006835938 m 2
 79.8701171875 480.342773438 l 1
 144.018554688 480.002929688 l 2
 222.64453125 479.99609375 295.510742188 438.764648438 336.004882812 371.368164062 c 1
 376.504882812 438.7734375 449.3828125 480.004882812 528.018554688 480.002929688 c 1
 591.985351562 480.002929688 l 1
 591.985351562 448.006835938 l 1
 591.979492188 324.306640625 491.705078125 224.016601562 368.004882812 224.016601562 c 1
 368.004882812 31.9931640625 l 1
 304.00390625 31.9931640625 l 1
 304.00390625 224.016601562 l 1
 180.30078125 224.021484375 80.013671875 324.302734375 80.013671875 448.006835938 c 2
147.225585938 415.965820312 m 1
 162.200195312 342.670898438 225.963867188 289.534179688 300.758789062 288.022460938 c 1
 285.784179688 361.318359375 222.020507812 414.454101562 147.225585938 415.965820312 c 1
524.772460938 415.965820312 m 1
 449.978515625 414.454101562 386.21484375 361.318359375 371.239257812 288.022460938 c 1
 446.034179688 289.534179688 509.797851562 342.670898438 524.772460938 415.965820312 c 1
EndSplineSet
Validated: 33
EndChar

StartChar: t.ken
Encoding: 989464 989464 24
Width: 672
VWidth: 1024
Flags: W
HStem: -0.000976562 21G<143.999 207.999 464.014 528.014> 223.975 64.0059<207.999 342.37>
VStem: 143.999 63.9951<-0.000976562 223.975 287.98 512> 464.014 64<-0.000976562 101.546 410.436 479.992 479.999 512>
LayerCount: 2
Fore
SplineSet
143.999023438 512 m 1
 207.994140625 512.005859375 l 1
 207.994140625 287.98046875 l 1
 271.99609375 287.98046875 l 1
 377.963867188 287.98046875 464.0078125 374.024414062 464.0078125 479.9921875 c 1
 464.0078125 479.9921875 528.282226562 480.13671875 528.01171875 479.9921875 c 0
 528.01171875 383.540039062 474.826171875 299.620117188 395.951171875 255.978515625 c 1
 474.821289062 212.338867188 528.00390625 128.442382812 528.01171875 32 c 1
 528.013671875 32 l 1
 528.013671875 -0.0009765625 l 1
 464.013671875 -0.0009765625 l 1
 464.013671875 31.98828125 l 1
 464.006835938 137.643554688 378.45703125 223.478515625 272.915039062 223.974609375 c 2
 207.999023438 223.974609375 l 1
 207.999023438 -0.0009765625 l 1
 143.999023438 -0.0009765625 l 1
 143.999023438 512 l 1
464.018554688 512 m 1
 528.01953125 512 l 1
 528.01953125 479.999023438 l 1
 464.018554688 479.999023438 l 1
 464.018554688 512 l 1
EndSplineSet
Validated: 37
EndChar

StartChar: t.kepeken
Encoding: 989465 989465 25
Width: 672
VWidth: 1024
Flags: W
HStem: 0.00195312 21G<176.993 256.001 447.988 511.992> 304.009 63.9805<215.992 311.998 376.002 471.984> 463.995 64.0039<215.992 311.998 376.002 471.984>
VStem: 151.988 64.0039<367.989 463.995> 311.998 64.0039<252.221 304.009 367.989 463.995> 447.988 64.0039<0.00195312 142.826> 471.984 64.0039<367.989 463.995>
LayerCount: 2
Fore
SplineSet
151.98828125 527.999023438 m 1xfc
 535.98828125 527.999023438 l 1
 535.98828125 304.008789062 l 1xfa
 376.001953125 304.008789062 l 1
 376.001953125 254.204101562 l 1
 452.971679688 242.641601562 511.9921875 176.194335938 511.9921875 96.0078125 c 2
 511.9921875 0.001953125 l 1
 447.98828125 0.001953125 l 1
 447.98828125 96.0078125 l 2
 447.98828125 149.005859375 405.004882812 191.990234375 352.006835938 191.990234375 c 0
 298.984375 191.990234375 256.000976562 149.005859375 256.000976562 96.0078125 c 2
 256.000976562 0.001953125 l 1
 191.99609375 0.001953125 l 1
 95.990234375 127.986328125 l 1
 147.198242188 166.3984375 l 1
 192.287109375 105.68359375 l 1
 196.471679688 175.928710938 246.010742188 234.030273438 311.998046875 250.962890625 c 1
 311.998046875 304.008789062 l 1
 151.98828125 304.008789062 l 1
 151.98828125 527.999023438 l 1xfc
215.9921875 463.995117188 m 1
 215.9921875 367.989257812 l 1
 311.998046875 367.989257812 l 1
 311.998046875 463.995117188 l 1
 215.9921875 463.995117188 l 1
376.001953125 463.995117188 m 1
 376.001953125 367.989257812 l 1
 471.984375 367.989257812 l 1
 471.984375 463.995117188 l 1
 376.001953125 463.995117188 l 1
EndSplineSet
Validated: 1
EndChar

StartChar: t.kili
Encoding: 989466 989466 26
Width: 672
VWidth: 1024
Flags: W
HStem: 15.9951 64.0039<265.794 406.214> 352.005 64.0039<180.252 268.867 403.29 490.821>
VStem: 80.0098 64.0039<201.801 315.767> 304 64.0039<272.012 316.722 391.747 495.926> 528.014 64.0039<201.799 315.767>
LayerCount: 2
Fore
SplineSet
304 496.001953125 m 1
 368.00390625 496.001953125 l 1
 368.00390625 496.001953125 368.1484375 391.833007812 368.00390625 391.747070312 c 1
 390.861328125 407.016601562 418.46875 416.008789062 447.995117188 416.008789062 c 2
 448.021484375 416.008789062 l 2
 527.494140625 416.006835938 592.016601562 351.485351562 592.017578125 272.01171875 c 0
 592.017578125 130.721679688 477.291992188 15.9951171875 336.001953125 15.9951171875 c 0
 194.715820312 16 80.009765625 130.723632812 80.009765625 272.01171875 c 0
 80.01171875 351.485351562 144.533203125 416.006835938 224.006835938 416.008789062 c 0
 253.533203125 416.008789062 281.142578125 407.016601562 304 391.747070312 c 1
 304 496.001953125 l 1
224.006835938 352.004882812 m 0
 179.859375 352.000976562 144.017578125 316.159179688 144.013671875 272.01171875 c 0
 144.013671875 166.047851562 230.040039062 80.005859375 336.001953125 79.9990234375 c 0
 441.969726562 79.9990234375 528.013671875 166.043945312 528.013671875 272.01171875 c 0
 528.009765625 316.159179688 492.168945312 352.000976562 448.021484375 352.004882812 c 2
 448.00390625 352.00390625 l 2
 403.853515625 352.00390625 368.0078125 316.161132812 368.00390625 272.01171875 c 1
 304 272.01171875 l 1
 303.99609375 316.159179688 268.154296875 352.000976562 224.006835938 352.004882812 c 0
EndSplineSet
Validated: 33
EndChar

StartChar: t.kiwen
Encoding: 989467 989467 27
Width: 672
VWidth: 1024
Flags: W
HStem: 416.009 64.0039<242.244 429.732>
LayerCount: 2
Fore
SplineSet
207.9921875 480.012695312 m 1
 463.984375 480.012695312 l 1
 591.9921875 288.000976562 l 1
 336.000976562 24.001953125 l 1
 79.984375 288.000976562 l 1
 207.9921875 480.012695312 l 1
242.244140625 416.008789062 m 1
 161.887695312 295.474609375 l 1
 336.000976562 115.944335938 l 1
 510.088867188 295.474609375 l 1
 429.732421875 416.008789062 l 1
 242.244140625 416.008789062 l 1
EndSplineSet
Validated: 1
EndChar

StartChar: t.ko
Encoding: 989468 989468 28
Width: 672
VWidth: 1024
Flags: W
HStem: 0.00292969 64.0039<180.248 268.634 403.476 490.817> 223.993 64.0039<179.293 224.003 448.017 492.727> 448.007 63.9805<180.247 268.635 403.439 490.817>
VStem: 80.0059 64.0039<100.245 188.631 323.438 410.79> 303.995 64.0049<99.29 144 367.99 412.721> 528.01 64.0039<100.245 188.633 323.435 410.79>
LayerCount: 2
Fore
SplineSet
224.002929688 511.987304688 m 0
 269.243164062 511.987304688 309.58984375 491.177734375 335.998046875 458.504882812 c 1
 362.405273438 491.177734375 402.749023438 511.987304688 447.990234375 511.987304688 c 2
 448.016601562 511.987304688 l 2
 527.490234375 511.985351562 592.01171875 447.463867188 592.013671875 367.990234375 c 0
 592.0078125 322.745117188 571.189453125 282.3984375 538.5078125 255.995117188 c 1
 571.189453125 229.591796875 592.0078125 189.245117188 592.013671875 144 c 0
 592.01171875 64.52734375 527.490234375 0.0048828125 448.016601562 0.0029296875 c 1
 448.041992188 -0.095703125 l 1
 402.80078125 -0.095703125 362.405273438 20.8125 335.998046875 53.4853515625 c 1
 309.58984375 20.8125 269.243164062 0.0029296875 224.002929688 0.0029296875 c 0
 144.529296875 0.0048828125 80.0068359375 64.52734375 80.005859375 144 c 0
 80.005859375 189.241210938 100.815429688 229.587890625 133.487304688 255.995117188 c 1
 100.815429688 282.40234375 80.005859375 322.749023438 80.005859375 367.990234375 c 0
 80.0078125 447.463867188 144.529296875 511.985351562 224.002929688 511.987304688 c 0
224.002929688 448.006835938 m 0
 179.852539062 448.002929688 144.009765625 412.158203125 144.009765625 368.0078125 c 2
 144.009765625 367.990234375 l 2
 144.013671875 323.842773438 179.85546875 288.000976562 224.002929688 287.997070312 c 1
 224.002929688 223.993164062 l 1
 179.85546875 223.989257812 144.013671875 188.147460938 144.009765625 144 c 0
 144.013671875 99.8525390625 179.85546875 64.0107421875 224.002929688 64.0068359375 c 0
 268.150390625 64.0107421875 303.991210938 99.8525390625 303.995117188 144 c 1
 303.995117188 144 367.999023438 144 368 144 c 1
 368.00390625 99.8505859375 403.848632812 64.0068359375 447.999023438 64.0068359375 c 2
 448.016601562 64.0068359375 l 2
 492.1640625 64.0107421875 528.005859375 99.8525390625 528.009765625 144 c 0
 528.005859375 188.147460938 492.1640625 223.989257812 448.016601562 223.993164062 c 1
 448.016601562 287.997070312 l 1
 492.1640625 288.000976562 528.005859375 323.842773438 528.009765625 367.990234375 c 2
 528.009765625 368.006835938 l 2
 528.009765625 412.158203125 492.166992188 448.002929688 448.016601562 448.006835938 c 2
 448 448.0078125 l 2
 403.846679688 448.0078125 368 412.161132812 368 368.0078125 c 2
 368 367.990234375 l 1
 303.995117188 367.990234375 l 2
 303.995117188 368.006835938 l 2
 303.995117188 412.158203125 268.15234375 448.002929688 224.002929688 448.006835938 c 0
EndSplineSet
Validated: 1
EndChar

StartChar: t.kon
Encoding: 989469 989469 29
Width: 672
VWidth: 1024
Flags: W
HStem: -0.00488281 64.0049<238.91 284.142 462.908 508.131> 448 63.9795<164.14 209.336 388.13 433.335>
VStem: 131.848 64.0039<105.667 199.243> 252.14 64.0039<312.726 406.311> 355.837 64.0049<105.667 199.243> 476.129 64.0039<312.726 406.311>
LayerCount: 2
Fore
SplineSet
164.139648438 511.979492188 m 1
 248.075195312 511.979492188 316.143554688 443.935546875 316.143554688 360 c 0
 316.143554688 305.598632812 287.092773438 255.3828125 239.948242188 228.243164062 c 0
 212.663085938 212.51953125 195.8515625 183.46875 195.8515625 151.974609375 c 0
 195.8515625 103.37890625 235.545898438 64 284.141601562 64 c 1
 284.141601562 -0.0048828125 l 1
 200.181640625 -0.0048828125 131.84765625 68.0390625 131.84765625 151.974609375 c 0
 131.84765625 206.3515625 160.8984375 256.591796875 208.04296875 283.732421875 c 0
 235.328125 299.455078125 252.139648438 328.505859375 252.139648438 360 c 0
 252.139648438 408.595703125 212.735351562 448 164.139648438 448 c 1
 164.139648438 511.979492188 l 1
388.129882812 511.979492188 m 1
 472.08984375 511.979492188 540.1328125 443.935546875 540.1328125 360 c 0
 540.1328125 305.598632812 511.08203125 255.3828125 463.961914062 228.243164062 c 0
 436.676757812 212.51953125 419.841796875 183.46875 419.841796875 151.974609375 c 0
 419.841796875 103.37890625 459.53515625 64 508.130859375 64 c 1
 508.130859375 -0.0048828125 l 1
 424.1953125 -0.0048828125 355.836914062 68.0390625 355.836914062 151.974609375 c 0
 355.836914062 206.3515625 384.888671875 256.591796875 432.032226562 283.732421875 c 0
 459.317382812 299.455078125 476.12890625 328.505859375 476.12890625 360 c 0
 476.12890625 408.595703125 436.725585938 448 388.129882812 448 c 1
 388.129882812 511.979492188 l 1
EndSplineSet
Validated: 1
EndChar

StartChar: t.kule
Encoding: 989470 989470 30
Width: 672
VWidth: 1024
Flags: W
HStem: -0.0146484 64.0039<183.557 488.459> 159.981 64<80 160.006 263.559 408.469 512.018 592>
LayerCount: 2
Fore
SplineSet
336.01953125 511.993164062 m 1
 480.01953125 223.981445312 l 1
 592 223.981445312 l 1
 592 159.981445312 l 1
 512.017578125 159.981445312 l 1
 592.01171875 -0.0146484375 l 1
 80.00390625 -0.0146484375 l 1
 160.005859375 159.981445312 l 1
 80 159.981445312 l 1
 80 223.981445312 l 1
 192.0078125 223.981445312 l 1
 336.01953125 511.993164062 l 1
336.01953125 368.891601562 m 1
 263.55859375 223.981445312 l 1
 408.46875 223.981445312 l 1
 336.01953125 368.891601562 l 1
231.556640625 159.981445312 m 1
 183.556640625 63.9892578125 l 1
 488.458984375 63.9892578125 l 1
 440.466796875 159.981445312 l 1
 231.556640625 159.981445312 l 1
EndSplineSet
Validated: 1
EndChar

StartChar: t.kulupu
Encoding: 989471 989471 31
Width: 672
VWidth: 1024
Flags: W
HStem: -8.00781 64.0039<145.217 222.765 449.209 526.751> 184.005 64.0039<145.217 222.765 449.209 526.751> 263.998 64.0039<297.22 374.762> 456.01 64.0039<297.22 374.762>
VStem: 55.9844 64.0039<81.2248 158.776> 207.987 64.0049<353.231 430.781> 247.996 63.9805<81.2263 158.774> 359.991 64.0039<81.2295 158.771> 399.976 64.0039<353.235 430.777> 551.979 64.0039<81.2248 158.776>
LayerCount: 2
Fore
SplineSet
335.99609375 520.013671875 m 0xfcc0
 406.633789062 520.004882812 463.979492188 462.645507812 463.979492188 392.005859375 c 0
 463.979492188 321.366210938 406.633789062 264.006835938 335.99609375 263.998046875 c 0
 265.350585938 263.998046875 207.987304688 321.360351562 207.987304688 392.005859375 c 0
 207.987304688 462.651367188 265.350585938 520.013671875 335.99609375 520.013671875 c 0xfcc0
335.99609375 456.009765625 m 0
 300.672851562 456.009765625 271.9921875 427.328125 271.9921875 392.005859375 c 0
 271.9921875 356.68359375 300.672851562 328.001953125 335.99609375 328.001953125 c 0
 371.30859375 328.012695312 399.975585938 356.690429688 399.975585938 392.005859375 c 0
 399.975585938 427.321289062 371.30859375 455.999023438 335.99609375 456.009765625 c 0
183.9921875 248.008789062 m 0
 254.629882812 248 311.9765625 190.639648438 311.9765625 120 c 0xfa40
 311.9765625 49.361328125 254.629882812 -7.9990234375 183.9921875 -8.0078125 c 0
 113.346679688 -8.0078125 55.984375 49.35546875 55.984375 120 c 0
 55.984375 190.645507812 113.346679688 248.008789062 183.9921875 248.008789062 c 0
183.9921875 184.004882812 m 0
 148.669921875 184.004882812 119.98828125 155.323242188 119.98828125 120 c 0
 119.98828125 84.677734375 148.669921875 55.99609375 183.9921875 55.99609375 c 0
 219.314453125 55.99609375 247.99609375 84.677734375 247.99609375 120 c 0
 247.99609375 155.323242188 219.314453125 184.004882812 183.9921875 184.004882812 c 0
487.975585938 248.008789062 m 0
 558.620117188 248.008789062 615.983398438 190.645507812 615.983398438 120 c 0
 615.983398438 49.35546875 558.620117188 -8.0078125 487.975585938 -8.0078125 c 0
 417.337890625 -7.9990234375 359.991210938 49.361328125 359.991210938 120 c 0xf940
 359.991210938 190.639648438 417.337890625 248 487.975585938 248.008789062 c 0
487.975585938 184.004882812 m 0
 452.662109375 183.994140625 423.995117188 155.31640625 423.995117188 120 c 0
 423.995117188 84.6845703125 452.662109375 56.0078125 487.975585938 55.99609375 c 0
 523.297851562 55.99609375 551.979492188 84.677734375 551.979492188 120 c 0
 551.979492188 155.323242188 523.297851562 184.004882812 487.975585938 184.004882812 c 0
EndSplineSet
Validated: 1
EndChar

StartChar: t.kute
Encoding: 989472 989472 32
Width: 672
VWidth: 1024
Flags: W
HStem: -0.0078125 64.0039<239.968 310.048> 336 7.99805<143.998 207.998> 456.02 63.9785<267.136 372.863>
VStem: 143.998 64<336 343.998 344 396.336> 287.998 64.0039<191.999 335.998> 431.956 64.0039<185.904 396.336>
LayerCount: 2
Fore
SplineSet
319.998046875 519.998046875 m 2
 417.200195312 519.998046875 496.036132812 441.201171875 495.998046875 344 c 2
 495.959960938 255.984375 l 2
 495.956054688 114.60546875 381.346679688 -0.0078125 239.967773438 -0.0078125 c 1
 239.967773438 63.99609375 l 1
 345.997070312 64.001953125 431.956054688 149.955078125 431.956054688 255.984375 c 2
 431.994140625 344 l 2
 432.004882812 405.861328125 381.859375 456.016601562 319.998046875 456.01953125 c 0
 258.13671875 456.016601562 208.00390625 405.861328125 208.00390625 344 c 1
 144 344 l 1
 144 441.201171875 222.796875 519.997070312 319.998046875 519.998046875 c 2
143.998046875 343.998046875 m 1
 207.998046875 343.998046875 l 1
 207.998046875 336 l 1
 143.998046875 336 l 1
 143.998046875 343.998046875 l 1
287.998046875 335.998046875 m 1
 352.001953125 335.998046875 l 1
 352.001953125 191.999023438 l 1
 287.998046875 191.999023438 l 1
 287.998046875 335.998046875 l 1
EndSplineSet
Validated: 33
EndChar

StartChar: t.la
Encoding: 989473 989473 33
Width: 672
VWidth: 1024
Flags: W
HStem: -0.00390625 64.0039<208.005 278.051> 448 64.0039<208.005 278.052>
VStem: 399.992 64.0049<185.782 326.199>
LayerCount: 2
Fore
SplineSet
208.004882812 512.00390625 m 1
 349.291015625 512 463.997070312 397.275390625 463.997070312 255.98828125 c 0
 463.9921875 114.704101562 349.288085938 0 208.004882812 -0.00390625 c 1
 208.004882812 64 l 1
 313.962890625 64.0068359375 399.986328125 150.030273438 399.9921875 255.98828125 c 0
 399.9921875 361.951171875 313.966796875 447.993164062 208.004882812 448 c 1
 208.004882812 512.00390625 l 1
EndSplineSet
Validated: 1
EndChar

StartChar: t.lape
Encoding: 989474 989474 34
Width: 672
VWidth: 1024
Flags: W
HStem: 128.02 63.9795<424.201 502.757> 224.005 64.001<79.999 343.985> 320.008 64.0029<424.2 502.757>
VStem: 527.966 64.0039<217.219 294.798>
LayerCount: 2
Fore
SplineSet
463.961914062 384.010742188 m 0
 534.666015625 384.010742188 591.969726562 326.708007812 591.969726562 256.002929688 c 0
 591.969726562 185.323242188 534.666015625 128.01953125 463.961914062 128.01953125 c 0
 404.330078125 128.01953125 354.219726562 168.807617188 340.010742188 224.004882812 c 1
 79.9990234375 224.004882812 l 1
 79.9990234375 288.005859375 l 1
 340.010742188 288.005859375 l 1
 354.217773438 343.219726562 404.328125 384.010742188 463.961914062 384.010742188 c 0
463.961914062 320.0078125 m 0
 428.62109375 320.0078125 399.983398438 291.3671875 399.983398438 256.002929688 c 0
 399.983398438 220.663085938 428.62109375 191.999023438 463.961914062 191.999023438 c 0
 499.326171875 191.999023438 527.965820312 220.663085938 527.965820312 256.002929688 c 0
 527.965820312 291.3671875 499.326171875 320.0078125 463.961914062 320.0078125 c 0
EndSplineSet
Validated: 1
EndChar

StartChar: t.laso
Encoding: 989475 989475 35
Width: 672
VWidth: 1024
Flags: W
HStem: 0.000976562 63.9785<234.496 437.488> 255.987 64.0371<242.667 300.744 371.211 429.31> 447.964 64.0371<147.211 206.36 465.61 524.744>
VStem: 303.989 64.0049<224.015 255.985>
LayerCount: 2
Fore
SplineSet
143.993164062 512.002929688 m 1
 144 512.002929688 l 2
 225.471679688 511.999023438 296.778320312 468.5 335.974609375 403.461914062 c 1
 375.176757812 468.50390625 446.497070312 512.000976562 527.9765625 512.000976562 c 2
 591.994140625 512.000976562 l 1
 591.956054688 479.999023438 l 2
 591.963867188 356.294921875 491.694335938 255.985351562 367.994140625 255.985351562 c 1
 367.994140625 224.014648438 l 1
 591.984375 0.0009765625 l 1
 80 0.0009765625 l 1
 303.989257812 224.014648438 l 1
 303.989257812 255.987304688 l 1
 180.276367188 255.9921875 80 356.288085938 80 480.000976562 c 2
 80 512.000976562 l 1
 79.9990234375 511.072265625 143.993164062 512.002929688 143.993164062 512.002929688 c 1
147.2109375 447.963867188 m 1
 162.186523438 374.668945312 225.950195312 321.536132812 300.744140625 320.024414062 c 1
 285.767578125 393.319335938 222.004882812 446.452148438 147.2109375 447.963867188 c 1
524.744140625 447.963867188 m 1
 449.950195312 446.452148438 386.186523438 393.317382812 371.2109375 320.022460938 c 1
 446.00390625 321.534179688 509.767578125 374.668945312 524.744140625 447.963867188 c 1
335.991210938 165.477539062 m 1
 234.49609375 63.9794921875 l 1
 437.48828125 63.9794921875 l 1
 335.991210938 165.477539062 l 1
EndSplineSet
Validated: 33
EndChar

StartChar: t.lawa
Encoding: 989476 989476 36
Width: 672
VWidth: 1024
Flags: W
HStem: 39.5684 64.0039<219.168 340.801> 287.994 64.002<162.475 397.498> 407.58 64.0039<219.293 341.592>
VStem: 63.9775 64.0039<194.759 285.287> 431.988 63.9805<194.76 287.747>
LayerCount: 2
Fore
SplineSet
279.985351562 471.583984375 m 0
 364.635742188 471.577148438 437.850585938 422.979492188 473.256835938 351.99609375 c 1
 608 351.99609375 l 1
 608 287.994140625 l 1
 608 287.994140625 493.516601562 288.200195312 493.5234375 287.994140625 c 0
 495.137695312 277.353515625 495.96875 266.665039062 495.96875 255.576171875 c 0
 495.96875 136.369140625 399.19140625 39.578125 279.985351562 39.568359375 c 0
 160.772460938 39.568359375 63.9775390625 136.36328125 63.9775390625 255.576171875 c 0
 63.9775390625 374.790039062 160.772460938 471.583984375 279.985351562 471.583984375 c 0
279.985351562 407.580078125 m 0
 232.63671875 407.580078125 190.360351562 385.982421875 162.474609375 351.99609375 c 1
 162.474609375 351.99609375 397.54296875 351.897460938 397.498046875 351.99609375 c 0
 369.612304688 385.982421875 327.334960938 407.580078125 279.985351562 407.580078125 c 0
131.477539062 287.994140625 m 2
 129.19140625 277.517578125 127.981445312 266.734375 127.981445312 255.576171875 c 0
 127.981445312 171.685546875 196.094726562 103.572265625 279.985351562 103.572265625 c 0
 363.876953125 103.572265625 431.98828125 171.685546875 431.98828125 255.576171875 c 0
 431.98828125 266.734375 430.778320312 277.517578125 428.4921875 287.994140625 c 2
 131.477539062 287.994140625 l 2
EndSplineSet
Validated: 33
EndChar

StartChar: t.len
Encoding: 989477 989477 37
Width: 672
VWidth: 1024
Flags: W
HStem: 159.984 64.0049<208.004 303.985 367.989 463.995> 416.001 64.0039<208.004 463.995>
VStem: 143.999 64.0049<32.001 159.984 223.989 416.001> 303.985 64.0039<32.001 159.984> 463.995 64.0039<32.001 159.984 223.989 416.001>
LayerCount: 2
Fore
SplineSet
143.999023438 480.004882812 m 1
 208.00390625 480.004882812 l 1
 463.995117188 480.004882812 l 1
 527.999023438 480.004882812 l 1
 527.999023438 32.0009765625 l 1
 463.995117188 32.0009765625 l 1
 463.995117188 159.984375 l 1
 367.989257812 159.984375 l 1
 367.989257812 32.0009765625 l 1
 303.985351562 32.0009765625 l 1
 303.985351562 159.984375 l 1
 208.00390625 159.984375 l 1
 208.00390625 32.0009765625 l 1
 143.999023438 32.0009765625 l 1
 143.999023438 480.004882812 l 1
208.00390625 416.000976562 m 1
 208.00390625 223.989257812 l 1
 463.995117188 223.989257812 l 1
 463.995117188 416.000976562 l 1
 208.00390625 416.000976562 l 1
EndSplineSet
Validated: 1
EndChar

StartChar: t.lete
Encoding: 989478 989478 38
Width: 672
VWidth: 1024
Flags: W
HStem: 223.999 64<111.999 559.999>
LayerCount: 2
Fore
SplineSet
111.999023438 223.999023438 m 1
 111.999023438 287.999023438 l 1
 559.999023438 287.999023438 l 1
 559.999023438 223.999023438 l 1
 111.999023438 223.999023438 l 1
251.711914062 46.0087890625 m 1
 196.287109375 78.0087890625 l 1
 420.287109375 465.98828125 l 1
 475.711914062 433.98828125 l 1
 251.711914062 46.0087890625 l 1
420.260742188 46.0224609375 m 1
 196.259765625 434.001953125 l 1
 251.685546875 466.001953125 l 1
 475.685546875 78.0224609375 l 1
 420.260742188 46.0224609375 l 1
EndSplineSet
Validated: 5
EndChar

StartChar: t.li
Encoding: 989479 989479 39
Width: 672
VWidth: 1024
Flags: W
HStem: 0.00976562 21G<220.011 260.011>
LayerCount: 2
Fore
SplineSet
240.010742188 512.018554688 m 1
 496.001953125 256.001953125 l 1
 240.010742188 0.009765625 l 1
 194.752929688 45.267578125 l 1
 405.51171875 256.001953125 l 1
 194.752929688 466.760742188 l 1
 240.010742188 512.018554688 l 1
EndSplineSet
Validated: 1
EndChar

StartChar: t.lili
Encoding: 989480 989480 40
Width: 672
VWidth: 1024
Flags: W
LayerCount: 2
Fore
SplineSet
243.331054688 358.208007812 m 1
 335.999023438 223.983398438 l 1
 428.642578125 358.208007812 l 1
 479.99609375 319.989257812 l 1
 335.999023438 128.000976562 l 1
 191.977539062 319.989257812 l 1
 243.331054688 358.208007812 l 1
EndSplineSet
Validated: 1
EndChar

StartChar: t.linja
Encoding: 989481 989481 41
Width: 672
VWidth: 1024
Flags: W
HStem: 163.852 64.0039<185.702 279.289> 284.143 63.9805<392.761 486.341>
VStem: 80.0205 64.0049<270.649 315.854> 528.025 63.9795<195.854 241.074>
LayerCount: 2
Fore
SplineSet
80.0205078125 315.854492188 m 1
 144.025390625 315.854492188 l 1
 144.025390625 267.234375 183.404296875 227.85546875 232.024414062 227.85546875 c 0
 263.494140625 227.85546875 292.569335938 244.666015625 308.291992188 271.952148438 c 0
 335.408203125 319.072265625 385.6484375 348.123046875 440.025390625 348.123046875 c 0
 523.985351562 348.123046875 592.004882812 279.7890625 592.004882812 195.853515625 c 1
 528.025390625 195.853515625 l 1
 528.025390625 244.44921875 488.62109375 284.142578125 440.025390625 284.142578125 c 0
 408.555664062 284.142578125 379.48046875 267.307617188 363.7578125 240.022460938 c 0
 336.641601562 192.90234375 286.401367188 163.8515625 232.024414062 163.8515625 c 0
 148.064453125 163.8515625 80.0205078125 231.89453125 80.0205078125 315.854492188 c 1
EndSplineSet
Validated: 1
EndChar

StartChar: t.lipu
Encoding: 989482 989482 42
Width: 672
VWidth: 1024
Flags: W
HStem: -0 64.0039<208.004 464.021> 448.004 64.0039<208.004 464.021>
VStem: 144 64.0039<64.0039 448.004> 464.021 63.9795<64.0039 448.004>
LayerCount: 2
Fore
SplineSet
144 512.0078125 m 1
 528 512.0078125 l 1
 528 -0 l 1
 144 -0 l 1
 144 512.0078125 l 1
208.00390625 448.00390625 m 1
 208.00390625 64.00390625 l 1
 464.020507812 64.00390625 l 1
 464.020507812 448.00390625 l 1
 208.00390625 448.00390625 l 1
EndSplineSet
Validated: 1
EndChar

StartChar: t.loje
Encoding: 989483 989483 43
Width: 672
VWidth: 1024
Flags: W
HStem: -0 64.0039<257.035 414.965> 448.021 63.9795<200.004 456.02>
VStem: 136 64.0039<390.952 448.021> 456.02 63.9805<390.954 448.021>
LayerCount: 2
Fore
SplineSet
136 512.000976562 m 1
 520 512.000976562 l 1
 520 512.000976562 519.999023438 448.008789062 520 448.021484375 c 1
 520 342.057617188 433.973632812 256.015625 328.01171875 256.008789062 c 0
 222.043945312 256.008789062 136 342.053710938 136 448.021484375 c 2
 136 512.000976562 l 1
200.00390625 448.021484375 m 1
 200.00390625 377.375976562 257.366210938 320.012695312 328.01171875 320.012695312 c 0
 398.657226562 320.012695312 456.01953125 377.375976562 456.01953125 448.021484375 c 1
 200.00390625 448.021484375 l 1
336.01171875 319.99609375 m 1
 528 -0 l 1
 144 -0 l 1
 336.01171875 319.99609375 l 1
336.01171875 195.591796875 m 1
 257.03515625 64.00390625 l 1
 414.96484375 64.00390625 l 1
 336.01171875 195.591796875 l 1
EndSplineSet
Validated: 37
EndChar

StartChar: t.lon
Encoding: 989484 989484 44
Width: 672
VWidth: 1024
Flags: W
HStem: 128 64<112 560> 272.001 96<302.059 369.941>
VStem: 288 96<286.06 353.942>
LayerCount: 2
Fore
SplineSet
112 128 m 1
 112 192 l 1
 560 192 l 1
 560 128 l 1
 112 128 l 1
288 320.000976562 m 0
 288 346.510742188 309.490234375 368.000976562 336 368.000976562 c 0
 362.509765625 368.000976562 384 346.510742188 384 320.000976562 c 0
 384 293.491210938 362.509765625 272.000976562 336 272.000976562 c 0
 309.490234375 272.000976562 288 293.491210938 288 320.000976562 c 0
EndSplineSet
Validated: 1
EndChar

StartChar: t.luka
Encoding: 989485 989485 45
Width: 672
VWidth: 1024
Flags: W
HStem: -0 21G<210 288.007 479.992 543.998> 456.005 63.9795<335.354 432.71>
VStem: 224 64.0049<111.584 407.575> 479.992 64.0039<0 407.575>
LayerCount: 2
Fore
SplineSet
384.024414062 519.984375 m 0
 472.41015625 519.984375 544.034179688 448.360351562 544.034179688 359.998046875 c 2
 543.99609375 -0 l 1
 479.9921875 -0 l 1
 480.030273438 359.998046875 l 2
 480.033203125 413.020507812 437.045898438 456.004882812 384.024414062 456.004882812 c 0
 331.026367188 456.004882812 288.045898438 413.020507812 288.041992188 359.998046875 c 2
 288.004882812 -0 l 1
 224 -0 l 1
 112.005859375 159.986328125 l 1
 164.422851562 196.705078125 l 1
 224 111.583984375 l 1
 224.038085938 359.998046875 l 2
 224.046875 448.360351562 295.662109375 519.984375 384.024414062 519.984375 c 0
EndSplineSet
Validated: 33
EndChar

StartChar: t.lukin
Encoding: 989486 989486 46
Width: 672
VWidth: 1024
Flags: W
HStem: 108.205 64.0039<258.094 413.933> 208 96<302.059 369.941> 339.814 64.0039<259.9 412.127>
VStem: 288 96<222.059 289.941>
LayerCount: 2
Fore
SplineSet
288 256 m 0
 288 282.509765625 309.490234375 304 336 304 c 0
 362.509765625 304 384 282.509765625 384 256 c 0
 384 229.490234375 362.509765625 208 336 208 c 0
 309.490234375 208 288 229.490234375 288 256 c 0
336.013671875 403.818359375 m 0
 419.711914062 403.815429688 495.342773438 369.022460938 549.142578125 313.037109375 c 0
 565.6953125 295.809570312 579.984375 276.826171875 592.005859375 256 c 1
 579.983398438 235.181640625 565.694335938 216.20703125 549.142578125 198.986328125 c 0
 495.342773438 143.000976562 419.711914062 108.208007812 336.013671875 108.205078125 c 0
 252.314453125 108.208007812 176.684570312 143.000976562 122.884765625 198.986328125 c 0
 106.32421875 216.206054688 92.02734375 235.180664062 79.9970703125 256 c 1
 92.025390625 276.828125 106.322265625 295.810546875 122.884765625 313.037109375 c 0
 176.684570312 369.022460938 252.314453125 403.815429688 336.013671875 403.818359375 c 0
336.013671875 339.814453125 m 0
 264.462890625 339.66796875 200.543945312 307.161132812 158.127929688 256 c 1
 200.547851562 204.84765625 264.465820312 172.349609375 336.013671875 172.208984375 c 0
 407.561523438 172.349609375 471.479492188 204.84765625 513.899414062 256 c 1
 471.483398438 307.161132812 407.564453125 339.66796875 336.013671875 339.814453125 c 0
EndSplineSet
Validated: 1
EndChar

StartChar: t.lupa
Encoding: 989487 989487 47
Width: 672
VWidth: 1024
Flags: W
HStem: -7.99902 64.0039<278.913 393.107>
VStem: 144.001 64.0039<126.913 512.001> 463.997 64.0039<126.917 512.001>
LayerCount: 2
Fore
SplineSet
336.012695312 -7.9990234375 m 0
 229.96484375 -8.0068359375 143.994140625 77.96484375 144.000976562 184.012695312 c 2
 144.000976562 512.000976562 l 1
 208.004882812 512.000976562 l 1
 208.004882812 184.012695312 l 2
 208.004882812 113.314453125 265.314453125 56.0009765625 336.012695312 56.0048828125 c 0
 406.702148438 56.0126953125 464.000976562 113.32421875 463.997070312 184.012695312 c 2
 463.997070312 512.000976562 l 1
 528.000976562 512.000976562 l 1
 528.000976562 184.012695312 l 2
 528.000976562 77.974609375 442.051757812 -7.9921875 336.012695312 -7.9990234375 c 0
EndSplineSet
Validated: 33
EndChar

StartChar: t.ma
Encoding: 989488 989488 48
Width: 672
VWidth: 1024
Flags: W
HStem: -8.00195 66.5928<258.48 303.995 367.999 413.514> 224.019 63.9805<138.567 303.995 368.119 533.428> 453.427 66.5928<258.48 303.995 367.999 413.514>
VStem: 71.999 66.5684<178.503 224.019 287.999 333.514> 303.995 64.0039<58.5908 223.899 287.999 453.427> 533.428 66.5684<178.503 224.019 287.999 333.514>
LayerCount: 2
Fore
SplineSet
335.997070312 520.01953125 m 0
 481.702148438 520.018554688 599.99609375 401.702148438 599.99609375 255.997070312 c 0
 599.995117188 110.291992188 481.702148438 -8.0009765625 335.997070312 -8.001953125 c 0
 190.29296875 -8.0009765625 72 110.291992188 71.9990234375 255.997070312 c 0
 71.9990234375 401.702148438 190.29296875 520.018554688 335.997070312 520.01953125 c 0
303.995117188 453.426757812 m 1
 219.372070312 439.712890625 152.28125 372.622070312 138.567382812 287.999023438 c 1
 303.995117188 287.999023438 l 1
 303.995117188 453.426757812 l 1
367.999023438 453.426757812 m 1
 367.999023438 287.999023438 l 1
 367.999023438 287.999023438 533.231445312 288.1953125 533.427734375 287.999023438 c 1
 519.712890625 372.622070312 452.623046875 439.712890625 367.999023438 453.426757812 c 1
138.567382812 224.018554688 m 1
 152.28125 139.395507812 219.372070312 72.3046875 303.995117188 58.5908203125 c 1
 303.995117188 224.018554688 l 1
 138.567382812 224.018554688 l 1
367.999023438 224.018554688 m 1
 367.999023438 224.018554688 368.1953125 58.7861328125 367.999023438 58.5908203125 c 1
 452.623046875 72.3046875 519.712890625 139.395507812 533.427734375 224.018554688 c 1
 367.999023438 224.018554688 l 1
EndSplineSet
Validated: 33
EndChar

StartChar: t.mama
Encoding: 989489 989489 49
Width: 672
VWidth: 1024
Flags: W
HStem: -16.0742 64.0762<301.29 370.72> 152.014 55.998<301.051 370.955> 464.004 64.0039<278.94 393.075>
VStem: 143.998 64.0039<277.812 393.658> 219.998 64.0059<65.2525 135.219> 387.992 64.0039<65.2566 135.21> 463.992 64.0059<277.805 393.641>
LayerCount: 2
Fore
SplineSet
336.009765625 528.0078125 m 1
 336.009765625 528.0078125 336.009765625 527.970703125 336.009765625 527.984375 c 1
 441.971679688 527.977539062 527.998046875 441.934570312 527.998046875 335.970703125 c 0
 527.995117188 263.924804688 488.428710938 201.215820312 429.6640625 168.375 c 1
 443.66796875 149.205078125 451.99609375 125.470703125 451.99609375 99.935546875 c 0
 451.99609375 35.91796875 400.025390625 -16.06640625 336.009765625 -16.07421875 c 0
 271.987304688 -16.07421875 219.998046875 35.9130859375 219.998046875 99.935546875 c 0
 220.001953125 125.484375 228.342773438 149.217773438 242.36328125 168.390625 c 1
 183.583007812 201.225585938 144.00390625 263.94140625 143.998046875 335.99609375 c 0
 143.998046875 441.963867188 230.041992188 528.0078125 336.009765625 528.0078125 c 1
336.009765625 464.00390625 m 0
 265.364257812 464.00390625 208.001953125 406.641601562 208.001953125 335.99609375 c 0
 208.010742188 265.358398438 265.370117188 208.01171875 336.009765625 208.01171875 c 0
 406.641601562 208.021484375 463.983398438 265.364257812 463.9921875 335.99609375 c 0
 463.9921875 406.634765625 406.646484375 463.994140625 336.009765625 464.00390625 c 0
336.009765625 152.013671875 m 0
 307.310546875 152.013671875 284.00390625 128.70703125 284.00390625 100.0078125 c 0
 284.00390625 71.30859375 307.310546875 48.001953125 336.009765625 48.001953125 c 0
 364.701171875 48.01171875 387.9921875 71.314453125 387.9921875 100.0078125 c 0
 387.9921875 128.701171875 364.701171875 152.00390625 336.009765625 152.013671875 c 0
EndSplineSet
Validated: 5
EndChar

StartChar: t.mani
Encoding: 989490 989490 50
Width: 672
VWidth: 1024
Flags: W
HStem: 15.999 64.0039<278.34 393.656> 336.019 63.9805<278.341 393.655>
VStem: 111.972 64.0283<382.958 448.001> 143.989 64.0039<150.349 270.129> 463.985 64.0039<150.352 270.126> 495.972 64.0283<382.958 448.001>
LayerCount: 2
Fore
SplineSet
336.000976562 399.999023438 m 0xd8
 441.958984375 399.9921875 527.982421875 313.96875 527.989257812 208.010742188 c 0
 527.989257812 102.046875 441.963867188 16.0048828125 336.000976562 15.9990234375 c 0
 230.034179688 15.9990234375 143.989257812 102.04296875 143.989257812 208.010742188 c 0
 143.99609375 313.97265625 230.038085938 399.999023438 336.000976562 399.999023438 c 0xd8
336.000976562 336.018554688 m 0
 265.356445312 336.018554688 207.993164062 278.65625 207.993164062 208.010742188 c 0
 207.993164062 137.365234375 265.356445312 80.0029296875 336.000976562 80.0029296875 c 0
 406.638671875 80.01171875 463.985351562 137.37109375 463.985351562 208.010742188 c 0
 463.985351562 278.650390625 406.638671875 336.009765625 336.000976562 336.018554688 c 0
111.971679688 448.000976562 m 1xe0
 111.971679688 448.000976562 175.985351562 447.969726562 176 448.000976562 c 1
 176.001953125 404.428710938 193.4453125 364.87109375 221.741210938 336.005859375 c 1
 199.970703125 336.005859375 l 1
 199.970703125 336.005859375 200.151367188 269.91796875 199.970703125 270.018554688 c 0
 146.38671875 310.961914062 111.973632812 375.422851562 111.971679688 448.000976562 c 1xe0
495.971679688 448.000976562 m 1xc4
 495.971679688 448.000976562 560.1796875 448.1015625 560 448.000976562 c 0
 559.998046875 375.422851562 525.583984375 310.961914062 472 270.018554688 c 1
 472 336.005859375 l 1
 472 336.005859375 450.215820312 336.037109375 450.23046875 336.005859375 c 1
 478.525390625 364.87109375 495.96875 404.428710938 495.971679688 448.000976562 c 1xc4
EndSplineSet
Validated: 37
EndChar

StartChar: t.meli
Encoding: 989491 989491 51
Width: 672
VWidth: 1024
Flags: W
HStem: 56.001 64.0039<207.989 303.996 368 463.981> 194.942 61.0527<284.874 303.996 368 387.117> 480.01 63.9795<283.127 388.855>
VStem: 159.999 63.9795<314.559 420.861> 303.996 64.0039<-31.998 56.001 120.005 197.483> 447.992 64.0049<314.563 420.861>
LayerCount: 2
Fore
SplineSet
335.998046875 543.989257812 m 0
 433.188476562 543.989257812 511.997070312 465.206054688 511.997070312 367.990234375 c 0
 511.997070312 283.134765625 451.427734375 210.423828125 368 194.942382812 c 1
 368 120.004882812 l 1
 463.981445312 120.004882812 l 1
 463.981445312 56.0009765625 l 1
 368 56.0009765625 l 1
 368 -31.998046875 l 1
 303.99609375 -31.998046875 l 1
 303.99609375 56.0009765625 l 1
 207.989257812 56.0009765625 l 1
 207.989257812 120.004882812 l 1
 303.99609375 120.004882812 l 1
 303.99609375 194.942382812 l 1
 220.543945312 210.350585938 159.999023438 283.134765625 159.999023438 367.990234375 c 0
 159.999023438 465.206054688 238.782226562 543.989257812 335.998046875 543.989257812 c 0
335.998046875 480.009765625 m 0
 274.122070312 480.009765625 223.978515625 429.865234375 223.978515625 367.990234375 c 0
 223.978515625 306.138671875 274.122070312 255.995117188 335.998046875 255.995117188 c 0
 397.848632812 255.995117188 447.9921875 306.138671875 447.9921875 367.990234375 c 0
 447.9921875 429.865234375 397.848632812 480.009765625 335.998046875 480.009765625 c 0
EndSplineSet
Validated: 1
EndChar

StartChar: t.mi
Encoding: 989492 989492 52
Width: 672
VWidth: 1024
Flags: W
HStem: 224 64<291.38 379.759> 448.002 63.998<292.241 379.759>
VStem: 192 64<328.037 410.801> 416 64<324.241 411.759>
LayerCount: 2
Fore
SplineSet
480 368 m 0
 480 288.524414062 415.475585938 224 336 224 c 0
 314.436523438 224 293.848632812 228.826171875 275.4765625 237.3359375 c 1
 298.421875 162.095703125 341.017578125 93.4423828125 399.927734375 38.99609375 c 1
 356.48828125 -8.00390625 l 1
 251.627929688 88.9111328125 192.000976562 225.2109375 192 367.998046875 c 2
 192 368 l 2
 192 447.475585938 256.524414062 512 336 512 c 0
 415.475585938 512 480 447.475585938 480 368 c 0
416 368 m 0
 416 412.153320312 380.153320312 448.001953125 336 448.001953125 c 0
 291.846679688 448.001953125 256 412.153320312 256 368 c 0
 256 323.846679688 291.846679688 288 336 288 c 0
 380.153320312 288 416 323.846679688 416 368 c 0
EndSplineSet
Validated: 1
EndChar

StartChar: t.mije
Encoding: 989493 989493 53
Width: 672
VWidth: 1024
Flags: W
HStem: 0.0166016 64.0039<203.144 308.873> 288.01 64.0049<203.144 309.601> 448.021 63.9795<368.01 488.011>
VStem: 80.0156 63.9795<123.153 228.873> 368.01 64.0039<123.153 229.603> 527.995 64.0039<288.01 408.012>
LayerCount: 2
Fore
SplineSet
368.009765625 512 m 1
 591.999023438 512 l 1
 591.999023438 288.009765625 l 1
 527.995117188 288.009765625 l 1
 527.995117188 408.01171875 l 1
 401.002929688 275.770507812 l 1
 421.12890625 246.405273438 432.013671875 211.62109375 432.013671875 176.015625 c 0
 432.013671875 78.7998046875 353.206054688 0.0166015625 256.014648438 0.0166015625 c 0
 158.798828125 0.0166015625 80.015625 78.7998046875 80.015625 176.015625 c 0
 80.015625 273.206054688 158.798828125 352.014648438 256.014648438 352.014648438 c 0
 291.62109375 352.014648438 326.404296875 341.081054688 355.74609375 321.00390625 c 1
 488.010742188 448.020507812 l 1
 368.009765625 448.020507812 l 1
 368.009765625 512 l 1
256.014648438 288.009765625 m 0
 194.138671875 288.009765625 143.995117188 237.866210938 143.995117188 176.015625 c 0
 143.995117188 114.1640625 194.138671875 64.0205078125 256.014648438 64.0205078125 c 0
 317.866210938 64.0205078125 368.009765625 114.1640625 368.009765625 176.015625 c 0
 368.009765625 237.866210938 317.866210938 288.009765625 256.014648438 288.009765625 c 0
EndSplineSet
Validated: 1
EndChar

StartChar: t.moku
Encoding: 989494 989494 54
Width: 672
VWidth: 1024
Flags: W
HStem: 0 21G<193 272.004 463.992 527.996> 224.015 95.9746<314.988 421.009> 255.985 31.9609<279.624 456.373> 447.997 64.0039<240.004 495.996>
VStem: 176 64.0039<390.929 447.997> 208 64.0039<106.674 175.537> 463.992 64.0039<0 175.585> 495.996 64.0039<390.927 447.997>
LayerCount: 2
Fore
SplineSet
367.986328125 287.946289062 m 1xb6
 367.986328125 287.994140625 l 1
 456.373046875 287.994140625 527.99609375 216.37109375 527.99609375 128.0078125 c 2
 527.99609375 0 l 1
 463.9921875 0 l 1
 463.9921875 128.0078125 l 2
 463.9921875 181.030273438 421.008789062 224.014648438 367.986328125 224.014648438 c 0xd6
 314.98828125 224.014648438 272.00390625 181.030273438 272.00390625 128.0078125 c 2
 272.00390625 0 l 1
 208 0 l 1
 111.994140625 128.0078125 l 1
 163.202148438 166.396484375 l 1
 208 106.673828125 l 1
 208 127.959960938 l 2
 208 216.322265625 279.624023438 287.946289062 367.986328125 287.946289062 c 1xb6
176 512.000976562 m 1xb9
 560 512.000976562 l 1
 560 512.000976562 559.98828125 447.985351562 560 447.997070312 c 1
 560 342.029296875 473.956054688 255.985351562 367.98828125 255.985351562 c 0
 262.026367188 255.991210938 176 342.033203125 176 447.997070312 c 2
 176 512.000976562 l 1xb9
240.00390625 447.997070312 m 1
 240.00390625 377.357421875 297.350585938 319.998046875 367.98828125 319.989257812 c 0xd9
 438.633789062 319.989257812 495.99609375 377.3515625 495.99609375 447.997070312 c 1
 240.00390625 447.997070312 l 1
EndSplineSet
Validated: 37
EndChar

StartChar: t.moli
Encoding: 989495 989495 55
Width: 672
VWidth: 1024
Flags: W
HStem: 76.0898 61.1738<204.194 241.958 429.945 468.949> 95.9248 64.0762<226.175 335.903 336 445.727>
LayerCount: 2
Fore
SplineSet
78.84375 419.883789062 m 1x00
 124.1015625 465.1171875 l 1
 191.975585938 397.243164062 l 1
 259.849609375 465.1171875 l 1
 305.107421875 419.883789062 l 1
 237.233398438 351.985351562 l 1
 305.107421875 284.110351562 l 1
 259.849609375 238.853515625 l 1
 191.975585938 306.727539062 l 1
 124.1015625 238.853515625 l 1
 78.84375 284.110351562 l 1
 146.717773438 351.985351562 l 1
 78.84375 419.883789062 l 1x00
366.837890625 419.883789062 m 1
 412.095703125 465.1171875 l 1
 479.969726562 397.243164062 l 1
 547.868164062 465.1171875 l 1
 593.1015625 419.883789062 l 1
 525.227539062 351.985351562 l 1
 593.1015625 284.110351562 l 1
 547.868164062 238.853515625 l 1
 479.969726562 306.727539062 l 1
 412.095703125 238.853515625 l 1
 366.837890625 284.110351562 l 1
 434.711914062 351.985351562 l 1
 366.837890625 419.883789062 l 1
335.903320312 160.000976562 m 2x40
 335.903320312 160.000976562 336 159.897460938 336 160.000976562 c 1x40
 388.397460938 159.969726562 438.963867188 151.946289062 486.576171875 137.263671875 c 1
 486.576171875 137.263671875 467.713867188 76.1796875 467.708984375 76.08984375 c 1x80
 426.043945312 88.91796875 381.799804688 95.9169921875 335.951171875 95.9248046875 c 0x40
 290.102539062 95.9169921875 245.859375 88.91796875 204.194335938 76.08984375 c 1
 204.194335938 76.08984375 185.327148438 137.366210938 185.326171875 137.263671875 c 1x80
 232.938476562 151.946289062 283.505859375 159.969726562 335.903320312 160.000976562 c 2x40
EndSplineSet
Validated: 37
EndChar

StartChar: t.monsi
Encoding: 989496 989496 56
Width: 672
VWidth: 1024
Flags: W
HStem: -0 64.0039<368.004 496.013> 207.999 96<174.059 241.941> 448.004 64.0039<368.004 496.013>
VStem: 160 96<222.058 289.94> 304 192.013<0 64.0039 448.004 512.008> 304 64.0039<64.0039 448.004>
LayerCount: 2
Fore
SplineSet
496.012695312 512.0078125 m 1xf8
 496.012695312 448.00390625 l 1xf8
 368.00390625 448.00390625 l 1
 368.00390625 64.00390625 l 1xf4
 496.012695312 64.00390625 l 1
 496.012695312 -0 l 1
 304 -0 l 1
 304 512.0078125 l 1
 496.012695312 512.0078125 l 1xf8
160 255.999023438 m 0
 160 282.508789062 181.490234375 303.999023438 208 303.999023438 c 0
 234.509765625 303.999023438 256 282.508789062 256 255.999023438 c 0
 256 229.489257812 234.509765625 207.999023438 208 207.999023438 c 0
 181.490234375 207.999023438 160 229.489257812 160 255.999023438 c 0
EndSplineSet
Validated: 1
EndChar

StartChar: t.mu
Encoding: 989497 989497 57
Width: 672
VWidth: 1024
Flags: W
HStem: -16.0039 64.0039<275.19 396.826> 95.998 96<302.055 369.937> 272.111 63.9316<482.932 522.312> 352.008 64.0039<319.937 358.611> 464.026 63.9805<153.942 229.149 447.45 525.101>
VStem: 64.0029 64.0039<360.494 438.794> 120 64.0049<139.186 260.822> 256.015 63.0605<384.01 438.043> 287.996 96<110.057 177.939> 360.003 62.9648<383.066 438.067> 488.012 64.0039<139.186 260.822> 550.976 64.0518<361.286 438.86>
LayerCount: 2
Fore
SplineSet
336.0078125 416.01171875 m 0xfa20
 455.221679688 416.01171875 552.015625 319.217773438 552.015625 200.00390625 c 0
 552.015625 80.7900390625 455.221679688 -16.00390625 336.0078125 -16.00390625 c 0
 216.793945312 -16.00390625 120 80.7900390625 120 200.00390625 c 0
 120 319.217773438 216.793945312 416.01171875 336.0078125 416.01171875 c 0xfa20
336.0078125 352.0078125 m 0
 252.1171875 352.0078125 184.004882812 283.895507812 184.004882812 200.00390625 c 0
 184.004882812 116.11328125 252.1171875 48 336.0078125 48 c 0
 419.899414062 48 488.01171875 116.11328125 488.01171875 200.00390625 c 0
 488.01171875 283.895507812 419.899414062 352.0078125 336.0078125 352.0078125 c 0
192.010742188 528.006835938 m 1
 191.091796875 527.982421875 l 1
 261.772460938 527.982421875 319.075195312 470.678710938 319.075195312 399.974609375 c 0
 319.075195312 394.65234375 319.075195312 389.331054688 319.075195312 384.009765625 c 2
 200.065429688 328.01171875 l 1
 183.6171875 272.280273438 l 1
 116.83203125 276.610351562 64.0029296875 332.124023438 64.0029296875 399.998046875 c 0xfd
 64.0029296875 470.703125 121.306640625 528.006835938 192.010742188 528.006835938 c 1
488.01171875 528.006835938 m 1xf860
 487.043945312 528.103515625 l 1
 557.723632812 528.103515625 615.02734375 470.799804688 615.02734375 400.119140625 c 0
 615.02734375 329.415039062 557.723632812 272.111328125 487.043945312 272.111328125 c 0
 485.592773438 272.111328125 485.350585938 272.18359375 482.931640625 272.18359375 c 2
 448.317382812 349.104492188 l 1
 459.057617188 340.880859375 472.458007812 336.04296875 486.971679688 336.04296875 c 0
 522.311523438 336.04296875 550.975585938 364.682617188 550.975585938 400.022460938 c 0xf810
 550.975585938 435.38671875 522.311523438 464.026367188 486.971679688 464.026367188 c 0
 451.607421875 464.026367188 422.967773438 435.38671875 422.967773438 400.022460938 c 0
 422.967773438 381.638671875 430.708007812 365.021484375 443.043945312 353.41015625 c 1
 360.002929688 383.06640625 l 2
 360.002929688 388.629882812 360.002929688 394.193359375 360.002929688 399.998046875 c 0
 360.002929688 470.703125 417.306640625 528.006835938 488.01171875 528.006835938 c 1xf860
192.010742188 464.002929688 m 0
 156.646484375 464.002929688 128.006835938 435.362304688 128.006835938 399.998046875 c 0
 128.006835938 364.658203125 156.646484375 336.018554688 192.010742188 336.018554688 c 0
 227.350585938 336.018554688 256.014648438 364.658203125 256.014648438 399.998046875 c 0xfd
 256.014648438 435.362304688 227.350585938 464.002929688 192.010742188 464.002929688 c 0
287.99609375 143.998046875 m 0xf880
 287.99609375 170.5078125 309.486328125 191.998046875 335.99609375 191.998046875 c 0
 362.505859375 191.998046875 383.99609375 170.5078125 383.99609375 143.998046875 c 0
 383.99609375 117.48828125 362.505859375 95.998046875 335.99609375 95.998046875 c 0
 309.486328125 95.998046875 287.99609375 117.48828125 287.99609375 143.998046875 c 0xf880
EndSplineSet
Validated: 5
EndChar

StartChar: t.mun
Encoding: 989498 989498 58
Width: 672
VWidth: 1024
Flags: W
HStem: -16.001 64<254.56 400.957> 463.999 64<254.559 400.957>
VStem: 296 64<198.262 313.737> 536 64<183.042 328.956>
LayerCount: 2
Fore
SplineSet
328 527.999023438 m 1
 478.12109375 527.999023438 600 406.120117188 600 255.999023438 c 0
 600 105.877929688 478.12109375 -16.0009765625 328 -16.0009765625 c 0
 251.044921875 -16.0009765625 181.500976562 15.9609375 132.001953125 67.4013671875 c 0
 102.831054688 97.724609375 80.6845703125 134.86328125 68.017578125 176.090820312 c 1
 90.6904296875 147.71875 125.190429688 129.276367188 164.005859375 128.061523438 c 0
 165.353515625 128.01953125 166.641601562 127.999023438 168 127.999023438 c 0
 238.645507812 127.999023438 296 185.354492188 296 255.999023438 c 0
 296 326.64453125 238.645507812 383.999023438 168 383.999023438 c 0
 166.641601562 383.999023438 165.348632812 383.979492188 164 383.936523438 c 0
 125.182617188 382.721679688 90.6806640625 364.27734375 68.0078125 335.901367188 c 1
 80.6767578125 377.130859375 102.825195312 414.26953125 132 444.592773438 c 0
 181.499023438 496.036132812 251.043945312 527.999023438 328 527.999023438 c 1
328 463.999023438 m 0
 291.853515625 463.999023438 257.62890625 454.62890625 228 438.383789062 c 1
 304.635742188 413.172851562 360 341.02734375 360 255.999023438 c 0
 359.999023438 170.973632812 304.635742188 98.830078125 228.001953125 73.6181640625 c 1
 257.629882812 57.3720703125 291.853515625 48.0009765625 328 47.9990234375 c 0
 442.797851562 48 536 141.201171875 536 255.999023438 c 0
 536 370.797851562 442.797851562 463.999023438 328 463.999023438 c 0
EndSplineSet
Validated: 1
EndChar

StartChar: t.musi
Encoding: 989499 989499 59
Width: 672
VWidth: 1024
Flags: W
HStem: -32 64.0039<268.984 403.135> 288.044 63.9561<174.3 213.744 458.529 497.601> 480.008 64.0039<137.884 214.3 457.207 534.783>
VStem: 47.9443 64.0049<376.554 454.794> 95.9844 64.1484<142.331 276.46> 239.957 64.2695<377.526 454.794> 368.037 63.9072<377.497 454.794> 512.131 63.8594<142.331 276.423> 559.953 64.1006<376.552 454.794>
LayerCount: 2
Fore
SplineSet
175.953125 544.01171875 m 2xf6
 176.243164062 544.01171875 l 2
 246.922851562 544.01171875 304.2265625 486.708007812 304.2265625 416.00390625 c 0
 304.2265625 346.412109375 248.689453125 290.462890625 179.484375 288.043945312 c 1
 167.208984375 264.077148438 160.1640625 236.752929688 160.1328125 208.002929688 c 0
 160.133789062 110.8671875 238.99609375 32.0048828125 336.131835938 32.00390625 c 0
 433.268554688 32.0048828125 512.130859375 110.8671875 512.130859375 208.002929688 c 0xef
 512.099609375 236.752929688 505.055664062 264.077148438 492.780273438 288.043945312 c 1
 423.599609375 289.786132812 368.037109375 346.412109375 368.037109375 416.00390625 c 0
 368.037109375 486.708007812 425.340820312 544.01171875 496.045898438 544.01171875 c 0
 566.725585938 544.01171875 624.053710938 486.708007812 624.053710938 416.00390625 c 0xe680
 624.053710938 367.142578125 596.647460938 324.642578125 556.397460938 303.114257812 c 1
 568.931640625 274.02734375 575.990234375 241.80078125 575.990234375 208.138671875 c 0
 575.990234375 208.09375 575.990234375 208.047851562 575.990234375 208.002929688 c 0
 575.990234375 75.54296875 468.446289062 -32 335.987304688 -32 c 0
 203.52734375 -32 95.984375 75.54296875 95.984375 208.002929688 c 0xef
 95.984375 208.047851562 96.09765625 208.267578125 96.09765625 208.3125 c 0
 96.09765625 241.974609375 103.04296875 274.02734375 115.577148438 303.114257812 c 1
 75.326171875 324.666992188 47.9443359375 367.142578125 47.9443359375 416.00390625 c 0
 47.9443359375 486.708007812 105.248046875 544.01171875 175.953125 544.01171875 c 2xf6
175.953125 480.0078125 m 0
 140.588867188 480.0078125 111.94921875 451.34375 111.94921875 416.00390625 c 0xf6
 111.94921875 380.6640625 140.588867188 352 175.953125 352 c 0
 211.29296875 352 239.95703125 380.6640625 239.95703125 416.00390625 c 0
 239.95703125 451.34375 211.29296875 480.0078125 175.953125 480.0078125 c 0
495.94921875 480.0078125 m 0
 460.608398438 480.0078125 431.944335938 451.34375 431.944335938 416.00390625 c 0
 431.944335938 380.6640625 460.608398438 352 495.94921875 352 c 0
 531.2890625 352 559.953125 380.6640625 559.953125 416.00390625 c 0xe680
 559.953125 451.34375 531.2890625 480.0078125 495.94921875 480.0078125 c 0
EndSplineSet
Validated: 1
EndChar

StartChar: t.mute
Encoding: 989500 989500 60
Width: 672
VWidth: 1024
Flags: W
HStem: -0.000976562 21G<160.001 224.001 304.001 368.001 448.001 512.001>
VStem: 160.001 64<-0.000976562 511.999> 304.001 64<-0.000976562 511.999> 448.001 64<0 512>
CounterMasks: 1 70
LayerCount: 2
Fore
SplineSet
304.000976562 -0.0009765625 m 1
 304.000976562 511.999023438 l 1
 368.000976562 511.999023438 l 1
 368.000976562 -0.0009765625 l 1
 304.000976562 -0.0009765625 l 1
160.000976562 -0.0009765625 m 1
 160.000976562 511.999023438 l 1
 224.000976562 511.999023438 l 1
 224.000976562 -0.0009765625 l 1
 160.000976562 -0.0009765625 l 1
448.000976562 -0 m 1
 448.000976562 512 l 1
 512.000976562 512 l 1
 512.000976562 -0 l 1
 448.000976562 -0 l 1
EndSplineSet
Validated: 1
EndChar

StartChar: t.nanpa
Encoding: 989501 989501 61
Width: 672
VWidth: 1024
Flags: W
HStem: 0 21G<208 272 400 464> 128.001 64<80 592> 320.001 64<80 592>
VStem: 208 64<0 512> 400 64<0.000976562 512.001>
LayerCount: 2
Fore
SplineSet
208 0 m 1
 208 512 l 1
 272 512 l 1
 272 0 l 1
 208 0 l 1
400 0.0009765625 m 1
 400 512.000976562 l 1
 464 512.000976562 l 1
 464 0.0009765625 l 1
 400 0.0009765625 l 1
80 384.000976562 m 1
 592 384.000976562 l 1
 592 320.000976562 l 1
 80 320.000976562 l 1
 80 384.000976562 l 1
80 192.000976562 m 1
 592 192.000976562 l 1
 592 128.000976562 l 1
 80 128.000976562 l 1
 80 192.000976562 l 1
EndSplineSet
Validated: 5
EndChar

StartChar: t.nasa
Encoding: 989502 989502 62
Width: 672
VWidth: 1024
Flags: W
HStem: -0.00292969 21G<167.834 223.141> 64.001 64<342.905 457.095> 320.001 64<297.212 374.788> 448.001 64<265.758 406.242>
VStem: 80 64<175.466 326.084> 208 64<198.906 294.064> 400 64<216.667 294.789> 528.002 63.998<198.905 326.084>
LayerCount: 2
Fore
SplineSet
592 256.000976562 m 1
 592.001953125 256.000976562 l 1
 592.000976562 149.9609375 506.0390625 64 400 64.0009765625 c 0
 293.9609375 64.0009765625 208 149.961914062 208 256.000976562 c 0
 208 326.693359375 265.307617188 384.000976562 336 384.000976562 c 0
 406.692382812 384 464 326.693359375 464 256.000976562 c 0
 464 222.052734375 450.513671875 189.495117188 426.509765625 165.491210938 c 1
 381.255859375 210.745117188 l 1
 393.2578125 222.747070312 400 239.026367188 400 256.000976562 c 0
 400 291.346679688 371.345703125 320.000976562 336 320.000976562 c 0
 300.653320312 320.000976562 271.999023438 291.346679688 272 256.000976562 c 0
 272 185.30859375 329.306640625 128.000976562 400 128.000976562 c 0
 470.692382812 128.000976562 528 185.30859375 528 256.000976562 c 1
 528.001953125 256.000976562 l 1
 528.000976562 362.040039062 442.0390625 448.000976562 336 448.000976562 c 0
 229.9609375 448 144 362.0390625 144 256.000976562 c 0
 144 175.387695312 181.970703125 99.4833984375 246.48046875 51.1416015625 c 1
 208.15234375 -0.0029296875 l 1
 127.515625 60.3994140625 80.037109375 155.25 80 256.000976562 c 0
 79.9990234375 397.385742188 194.615234375 512.000976562 336 512.000976562 c 0
 477.384765625 512.000976562 592 397.385742188 592 256.000976562 c 1
EndSplineSet
Validated: 33
EndChar

StartChar: t.nasin
Encoding: 989503 989503 63
Width: 672
VWidth: 1024
Flags: W
HStem: -0 21G<304.02 368>
VStem: 304.02 63.9805<0 296.001 384 512.008>
LayerCount: 2
Fore
SplineSet
304.01953125 512.0078125 m 1
 368 512.0078125 l 1
 368 384 l 1
 544.022460938 208.000976562 l 1
 496.0078125 160.009765625 l 1
 368 296.000976562 l 1
 368 -0 l 1
 304.01953125 -0 l 1
 304.01953125 296.000976562 l 1
 176.01171875 160.009765625 l 1
 128.020507812 208.000976562 l 1
 304.01953125 384 l 1
 304.01953125 512.0078125 l 1
EndSplineSet
Validated: 1
EndChar

StartChar: t.nena
Encoding: 989504 989504 64
Width: 672
VWidth: 1024
Flags: W
HStem: -0.000976562 21G<144 208.004 463.996 528> 448.003 64.0039<278.333 393.649>
VStem: 144 64.0039<319.995 377.063> 463.996 64.0039<0.23096 377.065>
LayerCount: 2
Fore
SplineSet
335.987304688 512.006835938 m 0
 441.955078125 512.006835938 528 425.962890625 528 319.995117188 c 2
 528 -0.0009765625 l 1
 463.99609375 -0.0009765625 l 1
 463.99609375 -0.0009765625 463.987304688 320.002929688 463.99609375 319.995117188 c 1
 463.99609375 390.640625 406.6328125 448.002929688 335.987304688 448.002929688 c 0
 265.350585938 447.994140625 208.00390625 390.634765625 208.00390625 319.995117188 c 2
 208.00390625 -0.0009765625 l 1
 144 -0.0009765625 l 1
 144 -0.0009765625 144 320.006835938 144 319.995117188 c 1
 144 425.958984375 230.025390625 512.000976562 335.987304688 512.006835938 c 0
EndSplineSet
Validated: 37
EndChar

StartChar: t.ni
Encoding: 989505 989505 65
Width: 672
VWidth: 1024
Flags: W
VStem: 303.998 64.0039<112.007 512.02>
LayerCount: 2
Fore
SplineSet
303.998046875 512.01953125 m 1
 368.001953125 512.01953125 l 1
 368.001953125 112.006835938 l 1
 496.009765625 248.021484375 l 1
 544.000976562 200.005859375 l 1
 336 -7.9951171875 l 1
 127.999023438 200.005859375 l 1
 175.989257812 248.021484375 l 1
 303.998046875 112.006835938 l 1
 303.998046875 512.01953125 l 1
EndSplineSet
Validated: 1
EndChar

StartChar: t.nimi
Encoding: 989506 989506 66
Width: 672
VWidth: 1024
Flags: W
HStem: 128.008 63.9805<149.908 176.002 176.234 495.766 495.998 522.092> 319.996 64.0039<149.908 176.002 176.234 522.092>
VStem: 79.9961 64.0039<197.896 223.99 224.037 287.948 287.994 314.088> 528 64.0039<197.896 223.99 224.037 287.948 287.994 314.088>
LayerCount: 2
Fore
SplineSet
176.001953125 384 m 2
 176.001953125 384 496.00390625 383.994140625 495.998046875 384 c 1
 548.981445312 384 592.00390625 340.977539062 592.00390625 287.994140625 c 2
 592.00390625 287.994140625 591.998046875 223.989257812 592.00390625 223.990234375 c 1
 591.994140625 171.014648438 548.975585938 128.0078125 495.998046875 128.0078125 c 2
 495.998046875 128.0078125 175.99609375 128.008789062 176.001953125 128.0078125 c 1
 123.024414062 128.0078125 80.005859375 171.014648438 79.99609375 223.990234375 c 2
 79.99609375 223.990234375 80.001953125 288 79.99609375 287.994140625 c 1
 79.99609375 340.977539062 123.018554688 384 176.001953125 384 c 2
176.001953125 319.99609375 m 2
 158.340820312 319.99609375 144 305.655273438 144 287.994140625 c 2
 144 287.994140625 144.001953125 223.98828125 144 223.990234375 c 1
 144 206.328125 158.340820312 191.98828125 176.001953125 191.98828125 c 2
 176.001953125 191.98828125 496 191.990234375 495.998046875 191.98828125 c 1
 513.659179688 191.98828125 528 206.328125 528 223.990234375 c 2
 528 223.990234375 527.998046875 287.99609375 528 287.994140625 c 1
 528 305.655273438 513.659179688 319.99609375 495.998046875 319.99609375 c 2
 176.001953125 319.99609375 l 2
EndSplineSet
Validated: 33
EndChar

StartChar: t.noka
Encoding: 989507 989507 67
Width: 672
VWidth: 1024
Flags: W
HStem: -0.0078125 64.0039<208.003 458.827> 223.982 64.0039<367.989 458.827>
VStem: 143.999 64.0039<63.9961 512> 304.01 63.9795<287.986 512> 495.997 64.0039<100.218 187.766>
LayerCount: 2
Fore
SplineSet
143.999023438 512 m 1
 208.002929688 512 l 1
 208.002929688 63.99609375 l 1
 416.00390625 63.99609375 l 2
 460.173828125 63.99609375 495.997070312 99.8203125 495.997070312 143.989257812 c 0
 495.997070312 188.182617188 460.173828125 223.982421875 416.00390625 223.982421875 c 2
 304.009765625 223.982421875 l 1
 304.009765625 512 l 1
 367.989257812 512 l 1
 367.989257812 287.986328125 l 1
 416.00390625 287.986328125 l 2
 495.538085938 287.986328125 560.000976562 223.522460938 560.000976562 143.989257812 c 0
 560.000976562 64.4560546875 495.538085938 -0.0078125 416.00390625 -0.0078125 c 2
 143.999023438 -0.0078125 l 1
 143.999023438 512 l 1
EndSplineSet
Validated: 1
EndChar

StartChar: t.o
Encoding: 989508 989508 68
Width: 672
VWidth: 1024
Flags: W
HStem: -7.99805 64.0039<297.209 374.784> 184.014 64.0039<297.209 374.784>
VStem: 207.991 64.0039<81.2243 158.8> 303.999 64<304.002 512.002> 400.004 63.9795<81.2243 158.8>
LayerCount: 2
Fore
SplineSet
303.999023438 304.001953125 m 1
 303.999023438 512.001953125 l 1
 367.999023438 512.001953125 l 1
 367.999023438 304.001953125 l 1
 303.999023438 304.001953125 l 1
336 248.017578125 m 0
 406.6796875 248.017578125 463.983398438 190.713867188 463.983398438 120.009765625 c 0
 463.983398438 49.330078125 406.6796875 -7.998046875 336 -7.998046875 c 0
 265.294921875 -7.998046875 207.991210938 49.330078125 207.991210938 120.009765625 c 0
 207.991210938 190.713867188 265.294921875 248.017578125 336 248.017578125 c 0
336 184.013671875 m 0
 300.659179688 184.013671875 271.995117188 155.349609375 271.995117188 120.009765625 c 0
 271.995117188 84.669921875 300.659179688 56.005859375 336 56.005859375 c 0
 371.33984375 56.005859375 400.00390625 84.669921875 400.00390625 120.009765625 c 0
 400.00390625 155.349609375 371.33984375 184.013671875 336 184.013671875 c 0
EndSplineSet
Validated: 1
EndChar

StartChar: t.olin
Encoding: 989509 989509 69
Width: 672
VWidth: 1024
Flags: W
HStem: 288.006 64.0039<217.185 276.335 395.889 447.729> 488.006 64.0039<201.949 276.347 395.057 470.955>
VStem: 112.01 64.2236<184.207 263.603 384.22 462.797> 496.01 64.0039<184.225 263.597 384.251 462.797>
LayerCount: 2
Fore
SplineSet
240.017578125 552.009765625 m 2
 240.236328125 552.009765625 l 2
 278.454101562 552.009765625 312.754882812 522.596679688 336.21875 496.013671875 c 1
 359.681640625 522.596679688 394.005859375 552.009765625 432.224609375 552.009765625 c 0
 502.928710938 552.009765625 560.232421875 494.706054688 560.232421875 424.001953125 c 0
 560.232421875 386.9921875 544.508789062 353.732421875 519.376953125 330.26953125 c 2
 512.30859375 323.69921875 l 1
 541.403320312 300.235351562 560.013671875 264.294921875 560.013671875 224.001953125 c 0
 560.013671875 186.9921875 544.291992188 153.70703125 519.16015625 130.244140625 c 2
 336 -39.998046875 l 1
 152.865234375 130.244140625 l 2
 127.732421875 153.634765625 112.009765625 186.9921875 112.009765625 224.001953125 c 0
 112.009765625 264.348632812 130.669921875 300.331054688 159.83203125 323.79296875 c 1
 152.865234375 330.26953125 l 2
 127.732421875 353.635742188 112.009765625 386.9921875 112.009765625 424.001953125 c 0
 112.009765625 494.706054688 169.313476562 552.009765625 240.017578125 552.009765625 c 2
240.116210938 488.005859375 m 0
 204.751953125 488.005859375 176.111328125 459.366210938 176.111328125 424.001953125 c 0
 176.111328125 405.497070312 183.8515625 388.758789062 196.4296875 377.1484375 c 2
 224.479492188 351.076171875 l 2
 229.572265625 351.692382812 234.758789062 352.009765625 240.018554688 352.009765625 c 0
 278.237304688 352.009765625 312.537109375 322.571289062 336.000976562 296.01171875 c 1
 359.463867188 322.571289062 393.788085938 352.009765625 432.006835938 352.009765625 c 0
 437.328125 352.009765625 442.575195312 351.682617188 447.727539062 351.052734375 c 0
 447.727539062 351.052734375 447.728515625 351.052734375 447.729492188 351.052734375 c 2
 475.790039062 377.1484375 l 2
 488.368164062 388.831054688 496.108398438 405.618164062 496.108398438 424.001953125 c 0
 496.108398438 459.366210938 467.444335938 488.005859375 432.104492188 488.005859375 c 0
 396.763671875 488.005859375 352.0625 440.015625 336.09765625 408.013671875 c 1
 320.109375 440.015625 275.456054688 488.005859375 240.116210938 488.005859375 c 0
240.114257812 288.005859375 m 0
 204.805664062 287.939453125 176.233398438 259.30078125 176.233398438 224.001953125 c 0
 176.233398438 205.497070312 183.973632812 188.733398438 196.551757812 177.123046875 c 2
 336.12109375 47.373046875 l 1
 475.69140625 177.123046875 l 2
 488.270507812 188.805664062 496.009765625 205.375976562 496.009765625 224.001953125 c 0
 496.009765625 259.341796875 467.346679688 288.005859375 432.006835938 288.005859375 c 0
 396.666015625 288.005859375 351.96484375 240.013671875 336.000976562 208.01171875 c 1
 320.026367188 239.984375 275.438476562 287.919921875 240.114257812 288.005859375 c 0
EndSplineSet
Validated: 9
EndChar

StartChar: t.ona
Encoding: 989510 989510 70
Width: 672
VWidth: 1024
Flags: W
HStem: 112 64<416.036 498.8> 336 64<412.24 499.758>
VStem: 311.999 64<211.38 299.759> 536.001 63.998<212.241 299.759>
LayerCount: 2
Fore
SplineSet
455.999023438 400 m 0
 535.474609375 400 599.999023438 335.475585938 599.999023438 256 c 0
 599.999023438 176.524414062 535.474609375 112 455.999023438 112 c 2
 455.997070312 112 l 2
 313.208984375 112.000976562 176.909179688 171.627929688 79.9951171875 276.48828125 c 1
 126.995117188 319.927734375 l 1
 181.44140625 261.017578125 250.09375 218.421875 325.334960938 195.4765625 c 1
 316.825195312 213.848632812 311.999023438 234.436523438 311.999023438 256 c 0
 311.999023438 335.475585938 376.5234375 400 455.999023438 400 c 0
455.999023438 336 m 0
 411.845703125 336 375.999023438 300.153320312 375.999023438 256 c 0
 375.999023438 211.846679688 411.845703125 176 455.999023438 176 c 0
 500.15234375 176 536.000976562 211.846679688 536.000976562 256 c 0
 536.000976562 300.153320312 500.15234375 336 455.999023438 336 c 0
EndSplineSet
Validated: 1
EndChar

StartChar: t.open
Encoding: 989511 989511 71
Width: 672
VWidth: 1024
Flags: W
HStem: 0.000976562 64.0039<208.003 463.995> 160.017 64<159.959 511.959>
VStem: 143.999 64.0039<64.0049 160.017 224.017 511.984> 159.959 48.0439<160.017 224.017> 463.995 64.0039<64.0049 160.017 224.017 511.984> 463.995 47.9639<160.017 224.017>
LayerCount: 2
Fore
SplineSet
159.958984375 160.016601562 m 1xd4
 159.958984375 224.016601562 l 1
 511.958984375 224.016601562 l 1
 511.958984375 160.016601562 l 1
 159.958984375 160.016601562 l 1xd4
143.999023438 511.984375 m 1xe8
 208.002929688 511.984375 l 1
 208.002929688 64.0048828125 l 1
 463.995117188 64.0048828125 l 1
 463.995117188 511.984375 l 1
 527.999023438 511.984375 l 1
 527.999023438 0.0009765625 l 1
 143.999023438 0.0009765625 l 1
 143.999023438 511.984375 l 1xe8
EndSplineSet
Validated: 5
EndChar

StartChar: t.pakala
Encoding: 989512 989512 72
Width: 672
VWidth: 1024
Flags: W
HStem: -0.0078125 64.0039<176.004 262.286 336.015 496> 224.006 63.9805<318.284 353.721> 447.996 64.0039<176.004 336.015 409.718 496>
VStem: 112 64.0039<63.9961 447.996> 496 64.0039<63.9961 447.996>
CounterMasks: 1 e0
LayerCount: 2
Fore
SplineSet
112 512 m 1
 560.00390625 512 l 1
 560.00390625 -0.0078125 l 1
 112 -0.0078125 l 1
 112 512 l 1
176.00390625 447.99609375 m 1
 176.00390625 63.99609375 l 1
 262.286132812 63.99609375 l 1
 353.720703125 224.005859375 l 1
 208.005859375 224.005859375 l 1
 336.014648438 447.99609375 l 1
 176.00390625 447.99609375 l 1
409.717773438 447.99609375 m 1
 318.284179688 287.986328125 l 1
 464.022460938 287.986328125 l 1
 336.014648438 63.99609375 l 1
 496 63.99609375 l 1
 496 447.99609375 l 1
 409.717773438 447.99609375 l 1
EndSplineSet
Validated: 1
EndChar

StartChar: t.pali
Encoding: 989513 989513 73
Width: 672
VWidth: 1024
Flags: W
HStem: 0.000976562 21G<193.004 272.012 463.999 528.003> 223.99 80.0322<323.844 412.159> 240.019 47.9521<288.519 447.465> 464.009 64.0039<325.191 410.791>
VStem: 208.007 64.0049<106.674 175.548> 223.995 64.0039<340.261 427.771> 448.009 63.9795<340.26 427.772> 463.999 64.0039<0.000976562 175.572>
LayerCount: 2
Fore
SplineSet
367.993164062 287.970703125 m 1xb9
 367.993164062 287.995117188 l 1
 456.35546875 287.995117188 528.002929688 216.37109375 528.002929688 127.984375 c 2
 528.002929688 0.0009765625 l 1
 463.999023438 0.0009765625 l 1
 463.999023438 127.984375 l 2
 463.999023438 181.006835938 421.015625 223.990234375 367.993164062 223.990234375 c 0xd9
 314.970703125 223.990234375 272.01171875 181.006835938 272.01171875 127.984375 c 2
 272.01171875 0.0009765625 l 1
 208.006835938 0.0009765625 l 1
 112.000976562 127.984375 l 1
 163.208984375 166.396484375 l 1
 208.006835938 106.673828125 l 1
 208.006835938 127.959960938 l 2
 208.006835938 216.346679688 279.630859375 287.970703125 367.993164062 287.970703125 c 1xb9
367.991210938 528.012695312 m 0
 447.46484375 528.010742188 511.987304688 463.489257812 511.98828125 384.015625 c 0
 511.987304688 304.541992188 447.46484375 240.020507812 367.991210938 240.018554688 c 0
 288.518554688 240.020507812 223.99609375 304.541992188 223.995117188 384.015625 c 0xb6
 223.99609375 463.489257812 288.518554688 528.010742188 367.991210938 528.012695312 c 0
367.991210938 464.008789062 m 2
 323.84375 464.004882812 288.002929688 428.163085938 287.999023438 384.015625 c 0
 288.002929688 339.868164062 323.84375 304.026367188 367.991210938 304.022460938 c 2
 368.008789062 304.022460938 l 2xd6
 412.159179688 304.022460938 448.004882812 339.866210938 448.008789062 384.015625 c 0
 448.004882812 428.166015625 412.16015625 464.008789062 368.008789062 464.008789062 c 2
 367.991210938 464.008789062 l 2
EndSplineSet
Validated: 5
EndChar

StartChar: t.palisa
Encoding: 989514 989514 74
Width: 672
VWidth: 1024
Flags: W
HStem: -7.99902 64.0039<309.903 362.099> 455.997 64.0039<309.902 362.098>
VStem: 239.995 64.0039<61.9088 450.093> 368.003 64.0039<61.9088 450.093>
LayerCount: 2
Fore
SplineSet
336 520.000976562 m 0
 389.024414062 520.004882812 432.009765625 477.01953125 432.006835938 423.995117188 c 2
 432.006835938 88.0078125 l 2
 432.009765625 34.9833984375 389.024414062 -8.001953125 336.000976562 -7.9990234375 c 0
 282.9765625 -8.001953125 239.991210938 34.9833984375 239.995117188 88.0078125 c 2
 239.994140625 423.995117188 l 2
 239.991210938 477.01953125 282.9765625 520.004882812 336 520.000976562 c 0
336 455.997070312 m 0
 318.325195312 455.998046875 303.997070312 441.669921875 303.998046875 423.995117188 c 2
 303.999023438 88.0078125 l 2
 303.998046875 70.3330078125 318.326171875 56.00390625 336.000976562 56.0048828125 c 0
 353.67578125 56.00390625 368.00390625 70.3330078125 368.002929688 88.0078125 c 2
 368.001953125 423.995117188 l 2
 368.002929688 441.669921875 353.674804688 455.998046875 336 455.997070312 c 0
EndSplineSet
Validated: 33
EndChar

StartChar: t.pan
Encoding: 989515 989515 75
Width: 672
VWidth: 1024
Flags: W
LayerCount: 2
Fore
SplineSet
243.35546875 206.206054688 m 1
 335.999023438 71.9814453125 l 1
 428.666992188 206.206054688 l 1
 479.99609375 167.98828125 l 1
 335.999023438 -24 l 1
 192.001953125 167.98828125 l 1
 243.35546875 206.206054688 l 1
243.35546875 366.206054688 m 1
 335.999023438 232.005859375 l 1
 428.666992188 366.206054688 l 1
 479.99609375 328.01171875 l 1
 335.999023438 136 l 1
 192.001953125 328.01171875 l 1
 243.35546875 366.206054688 l 1
243.35546875 526.20703125 m 1
 335.999023438 392.005859375 l 1
 428.666992188 526.20703125 l 1
 479.99609375 487.98828125 l 1
 335.999023438 296 l 1
 192.002929688 487.98828125 l 1
 243.35546875 526.20703125 l 1
EndSplineSet
Validated: 1
EndChar

StartChar: t.pana
Encoding: 989516 989516 76
Width: 672
VWidth: 1024
Flags: W
HStem: -0 21G<193 272.004 464.017 527.996> 255.992 64.0039<319.33 416.69>
VStem: 208 64.0039<106.674 207.586> 336 64.0049<384.001 527.998> 464.017 63.9795<0 207.586>
LayerCount: 2
Fore
SplineSet
336 527.998046875 m 1
 400.004882812 527.998046875 l 1
 400.004882812 384.000976562 l 1
 336 384.000976562 l 1
 336 527.998046875 l 1
503.322265625 502.517578125 m 1
 559.97265625 472.764648438 l 1
 493.017578125 345.2890625 l 1
 436.3671875 375.041992188 l 1
 503.322265625 502.517578125 l 1
232.647460938 502.517578125 m 1
 299.602539062 375.041992188 l 1
 242.927734375 345.2890625 l 1
 175.97265625 472.764648438 l 1
 232.647460938 502.517578125 l 1
368.010742188 319.99609375 m 0
 456.373046875 319.99609375 527.99609375 248.372070312 527.99609375 160.009765625 c 2
 527.99609375 -0 l 1
 464.016601562 -0 l 1
 464.016601562 160.009765625 l 2
 464.016601562 213.0078125 421.032226562 255.9921875 368.010742188 255.9921875 c 0
 314.98828125 255.9921875 272.00390625 213.0078125 272.00390625 160.009765625 c 2
 272.00390625 -0 l 1
 208 -0 l 1
 111.994140625 128.0078125 l 1
 163.202148438 166.396484375 l 1
 208 106.673828125 l 1
 208 160.009765625 l 2
 208 248.372070312 279.6484375 319.99609375 368.010742188 319.99609375 c 0
EndSplineSet
Validated: 1
EndChar

StartChar: t.pi
Encoding: 989517 989517 77
Width: 672
VWidth: 1024
Flags: W
HStem: 64.001 64<239.999 495.999>
VStem: 176 63.999<128.001 448.001>
LayerCount: 2
Fore
SplineSet
176 448.000976562 m 1
 239.999023438 448.000976562 l 1
 239.999023438 128.000976562 l 1
 495.999023438 128.000976562 l 1
 495.999023438 64.0009765625 l 1
 176 64.0009765625 l 1
 176 448.000976562 l 1
EndSplineSet
Validated: 1
EndChar

StartChar: t.pilin
Encoding: 989518 989518 78
Width: 672
VWidth: 1024
Flags: W
HStem: -0.000976562 21G<319.855 352.145> 448.003 63.9805<181.182 257.889 413.628 491.776>
VStem: 80.0078 64.0283<323.224 411.767> 528.012 63.9805<323.575 411.767>
LayerCount: 2
Fore
SplineSet
224.004882812 511.983398438 m 0
 269.23828125 511.983398438 309.609375 472.627929688 336 439.997070312 c 1
 362.389648438 472.627929688 402.76171875 511.983398438 447.995117188 511.983398438 c 0
 527.528320312 511.983398438 591.9921875 447.51953125 591.9921875 367.986328125 c 0
 591.9921875 335.766601562 581.130859375 304.465820312 561.295898438 279.091796875 c 2
 336 -0.0009765625 l 1
 110.704101562 279.091796875 l 2
 90.892578125 304.465820312 80.0078125 335.766601562 80.0078125 367.986328125 c 0
 80.0078125 447.51953125 144.471679688 511.983398438 224.004882812 511.983398438 c 0
224.004882812 448.002929688 m 1
 224.029296875 448.002929688 l 1
 179.8359375 448.002929688 144.036132812 412.1796875 144.036132812 367.986328125 c 0
 144.036132812 350.0859375 149.841796875 332.646484375 160.96875 318.616210938 c 2
 335.903320312 95.6669921875 l 1
 510.837890625 318.616210938 l 2
 521.96484375 332.694335938 528.01171875 350.0859375 528.01171875 367.986328125 c 0
 528.01171875 412.1796875 492.188476562 448.002929688 447.995117188 448.002929688 c 0
 403.826171875 448.002929688 351.96484375 367.986328125 336 335.984375 c 1
 320.010742188 367.986328125 268.173828125 448.002929688 224.004882812 448.002929688 c 1
EndSplineSet
Validated: 5
EndChar

StartChar: t.pimeja
Encoding: 989519 989519 79
Width: 672
VWidth: 1024
Flags: W
HStem: -0.000976562 64.0029<183.557 194.752 285.25 386.75 477.268 488.469>
LayerCount: 2
Fore
SplineSet
336 511.999023438 m 1
 592 -0.0009765625 l 1
 80 -0.0009765625 l 1
 336 511.999023438 l 1
336 368.900390625 m 1
 281.455078125 259.806640625 l 1
 336 205.264648438 l 1
 390.55078125 259.8125 l 1
 336 368.900390625 l 1
420.724609375 199.471679688 m 1
 381.259765625 160.006835938 l 1
 477.267578125 64.00390625 l 1
 488.46875 64.00390625 l 1
 420.724609375 199.471679688 l 1
251.28515625 199.4609375 m 1
 183.556640625 64.001953125 l 1
 194.751953125 64.001953125 l 1
 290.7421875 160.005859375 l 1
 251.28515625 199.4609375 l 1
336 114.75 m 1
 285.25 64.001953125 l 1
 386.75 64.001953125 l 1
 336 114.75 l 1
EndSplineSet
Validated: 1
EndChar

StartChar: t.pini
Encoding: 989520 989520 80
Width: 672
VWidth: 1024
Flags: W
HStem: 0 64<175.999 303.972 367.973 496> 448 64<175.999 496>
VStem: 303.972 64.001<64 447.977>
LayerCount: 2
Fore
SplineSet
175.999023438 512 m 1
 496 512 l 1
 496 448 l 1
 175.999023438 448 l 1
 175.999023438 512 l 1
303.971679688 447.9765625 m 1
 367.97265625 447.9765625 l 1
 367.97265625 64 l 1
 496 64 l 1
 496 0 l 1
 175.999023438 0 l 1
 175.999023438 64 l 1
 303.971679688 64 l 1
 303.971679688 447.9765625 l 1
EndSplineSet
Validated: 1
EndChar

StartChar: t.pipi
Encoding: 989521 989521 81
Width: 672
VWidth: 1024
Flags: W
HStem: -0.0136719 21G<303.973 367.973> 63.9961 64<176 496> 191.998 64<176 496> 320 64<176 496> 439.994 80<201.738 262.23 409.731 470.222>
VStem: 191.984 80<449.748 510.24> 303.973 64<-0.0136719 447.986> 399.977 80<449.748 510.24>
LayerCount: 2
Fore
SplineSet
191.984375 479.994140625 m 0
 191.984375 502.0859375 209.892578125 519.994140625 231.984375 519.994140625 c 0
 254.075195312 519.994140625 271.984375 502.0859375 271.984375 479.994140625 c 0
 271.984375 457.90234375 254.075195312 439.994140625 231.984375 439.994140625 c 0
 209.892578125 439.994140625 191.984375 457.90234375 191.984375 479.994140625 c 0
399.9765625 479.994140625 m 0
 399.9765625 502.0859375 417.884765625 519.994140625 439.9765625 519.994140625 c 0
 462.067382812 519.994140625 479.9765625 502.0859375 479.9765625 479.994140625 c 0
 479.9765625 457.90234375 462.067382812 439.994140625 439.9765625 439.994140625 c 0
 417.884765625 439.994140625 399.9765625 457.90234375 399.9765625 479.994140625 c 0
303.97265625 -0.013671875 m 1
 303.97265625 447.986328125 l 1
 367.97265625 447.986328125 l 1
 367.97265625 -0.013671875 l 1
 303.97265625 -0.013671875 l 1
176 320 m 1
 176 384 l 1
 496 384 l 1
 496 320 l 1
 176 320 l 1
176 191.998046875 m 1
 176 255.998046875 l 1
 496 255.998046875 l 1
 496 191.998046875 l 1
 176 191.998046875 l 1
176 63.99609375 m 1
 176 127.99609375 l 1
 496 127.99609375 l 1
 496 63.99609375 l 1
 176 63.99609375 l 1
EndSplineSet
Validated: 5
EndChar

StartChar: t.poka
Encoding: 989522 989522 82
Width: 672
VWidth: 1024
Flags: W
HStem: 128.001 64.0039<144.005 399.997> 208.001 96<526.059 593.941>
VStem: 80.001 64.0039<192.005 384.017> 399.997 64.0039<192.005 384.017> 512 96<222.06 289.942>
LayerCount: 2
Fore
SplineSet
80.0009765625 384.016601562 m 1
 144.004882812 384.016601562 l 1
 144.004882812 192.004882812 l 1
 399.997070312 192.004882812 l 1
 399.997070312 384.016601562 l 1
 464.000976562 384.016601562 l 1
 464.000976562 128.000976562 l 1
 80.0009765625 128.000976562 l 1
 80.0009765625 384.016601562 l 1
512 256.000976562 m 0
 512 282.510742188 533.490234375 304.000976562 560 304.000976562 c 0
 586.509765625 304.000976562 608 282.510742188 608 256.000976562 c 0
 608 229.491210938 586.509765625 208.000976562 560 208.000976562 c 0
 533.490234375 208.000976562 512 229.491210938 512 256.000976562 c 0
EndSplineSet
Validated: 1
EndChar

StartChar: t.poki
Encoding: 989523 989523 83
Width: 672
VWidth: 1024
Flags: W
HStem: 0.000976562 64.0039<208.003 463.995>
VStem: 143.999 64.0039<64.0049 511.984> 463.995 64.0039<64.0049 511.984>
LayerCount: 2
Fore
SplineSet
143.999023438 511.984375 m 1
 208.002929688 511.984375 l 1
 208.002929688 64.0048828125 l 1
 463.995117188 64.0048828125 l 1
 463.995117188 511.984375 l 1
 527.999023438 511.984375 l 1
 527.999023438 0.0009765625 l 1
 143.999023438 0.0009765625 l 1
 143.999023438 511.984375 l 1
EndSplineSet
Validated: 1
EndChar

StartChar: t.pona
Encoding: 989524 989524 84
Width: 672
VWidth: 1024
Flags: W
HStem: 127.986 64.0039<274.241 397.784>
VStem: 112.021 64.0039<290.708 352.001> 496.021 63.9795<290.708 352.001>
LayerCount: 2
Fore
SplineSet
336.010742188 127.986328125 m 0
 212.38671875 127.9921875 112.021484375 228.375 112.021484375 352.000976562 c 1
 112.021484375 351.986328125 176.025390625 352.000976562 176.025390625 352.000976562 c 1
 176.025390625 263.69921875 247.7109375 191.998046875 336.010742188 191.990234375 c 0
 424.317382812 191.990234375 496.021484375 263.694335938 496.021484375 352.000976562 c 1
 496.010742188 351.990234375 560.000976562 352.000976562 560.000976562 352.000976562 c 1
 560.000976562 228.375 459.635742188 127.9921875 336.010742188 127.986328125 c 0
EndSplineSet
Validated: 33
EndChar

StartChar: t.pu
Encoding: 989525 989525 85
Width: 672
VWidth: 1024
Flags: W
HStem: 0.000976562 64.0029<208.004 463.995> 111.988 48.0146<303.005 368.994> 255.984 48.0156<303.005 368.994> 344 80<311.999 359.999> 447.997 64.0029<208.004 463.995>
VStem: 144 64.0039<64.0039 447.997> 239.993 47.9912<174.532 241.455> 311.999 48<344 424> 383.99 48.0156<174.534 241.454> 463.995 64.0049<64.0039 447.997>
LayerCount: 2
Fore
SplineSet
144 512 m 1
 528 512 l 1
 528 0.0009765625 l 1
 144 0.0009765625 l 1
 144 512 l 1
208.00390625 447.997070312 m 1
 208.00390625 64.00390625 l 1
 463.995117188 64.00390625 l 1
 463.995117188 447.997070312 l 1
 208.00390625 447.997070312 l 1
336 304 m 0
 388.983398438 304 432.005859375 260.977539062 432.005859375 207.994140625 c 0
 432.005859375 155.009765625 388.983398438 111.98828125 336 111.98828125 c 0
 283.015625 111.98828125 239.993164062 155.009765625 239.993164062 207.994140625 c 0
 239.993164062 260.977539062 283.015625 304 336 304 c 0
336 255.984375 m 2
 335.984375 255.984375 l 2
 309.49609375 255.984375 287.989257812 234.481445312 287.984375 207.994140625 c 0
 287.989257812 181.505859375 309.495117188 160.002929688 335.984375 160.002929688 c 2
 336 160.002929688 l 2
 362.484375 160.0078125 383.985351562 181.509765625 383.990234375 207.994140625 c 0
 383.985351562 234.478515625 362.484375 255.979492188 336 255.984375 c 2
311.999023438 344 m 1
 311.999023438 424 l 1
 359.999023438 424 l 1
 359.999023438 344 l 1
 311.999023438 344 l 1
390.15234375 331.975585938 m 1
 445.188476562 390.037109375 l 1
 480.024414062 357.015625 l 1
 424.989257812 298.954101562 l 1
 390.15234375 331.975585938 l 1
281.876953125 331.9765625 m 1
 247.040039062 298.955078125 l 1
 192.00390625 357.015625 l 1
 226.840820312 390.037109375 l 1
 281.876953125 331.9765625 l 1
EndSplineSet
Validated: 5
EndChar

StartChar: t.sama
Encoding: 989526 989526 86
Width: 672
VWidth: 1024
Flags: W
HStem: 127.983 64<144 528> 320.001 64<144 528>
LayerCount: 2
Fore
SplineSet
144 384.000976562 m 1
 528 384.000976562 l 1
 528 320.000976562 l 1
 144 320.000976562 l 1
 144 384.000976562 l 1
144 191.983398438 m 1
 528 191.983398438 l 1
 528 127.983398438 l 1
 144 127.983398438 l 1
 144 191.983398438 l 1
EndSplineSet
Validated: 1
EndChar

StartChar: t.seli
Encoding: 989527 989527 87
Width: 672
VWidth: 1024
Flags: W
HStem: 48.002 96<302.067 369.949>
VStem: 288.008 96<62.0608 129.943> 304 64<208 448>
LayerCount: 2
Fore
SplineSet
288.0078125 96.001953125 m 0xc0
 288.0078125 122.51171875 309.498046875 144.001953125 336.0078125 144.001953125 c 0
 362.517578125 144.001953125 384.0078125 122.51171875 384.0078125 96.001953125 c 0
 384.0078125 69.4921875 362.517578125 48.001953125 336.0078125 48.001953125 c 0
 309.498046875 48.001953125 288.0078125 69.4921875 288.0078125 96.001953125 c 0xc0
304 208 m 1xa0
 304 448 l 1
 368 448 l 1
 368 208 l 1
 304 208 l 1xa0
397.83203125 201.168945312 m 1
 502.401367188 417.190429688 l 1
 560.006835938 389.3046875 l 1
 455.4375 173.284179688 l 1
 397.83203125 201.168945312 l 1
274.208007812 201.18359375 m 1
 216.6015625 173.298828125 l 1
 112.032226562 389.3203125 l 1
 169.637695312 417.205078125 l 1
 274.208007812 201.18359375 l 1
EndSplineSet
Validated: 1
EndChar

StartChar: t.selo
Encoding: 989528 989528 88
Width: 672
VWidth: 1024
Flags: W
HStem: 160 191.988<79.9922 143.996 191.987 255.991 416.002 479.981 527.996 592.001> 287.984 64.0039<143.996 191.987 255.991 416.002 479.981 527.996>
VStem: 79.9922 64.0039<160 287.984> 191.987 64.0039<160 287.984> 416.002 63.9795<160 287.984> 527.996 64.0049<160 287.984>
LayerCount: 2
Fore
SplineSet
79.9921875 351.98828125 m 1xbc
 592.000976562 351.98828125 l 1
 592.000976562 160 l 1
 527.99609375 160 l 1xbc
 527.99609375 287.984375 l 1
 479.981445312 287.984375 l 1x7c
 479.981445312 160 l 1
 416.001953125 160 l 1xbc
 416.001953125 287.984375 l 1
 255.991210938 287.984375 l 1x7c
 255.991210938 160 l 1
 191.987304688 160 l 1xbc
 191.987304688 287.984375 l 1
 143.99609375 287.984375 l 1x7c
 143.99609375 160 l 1
 79.9921875 160 l 1
 79.9921875 351.98828125 l 1xbc
EndSplineSet
Validated: 1
EndChar

StartChar: t.seme
Encoding: 989529 989529 89
Width: 672
VWidth: 1024
Flags: W
HStem: -7.96094 96.0059<302.075 369.947> 207.974 64.0039<368.652 421.158> 448.001 64.0283<249.982 296.014 376.007 421.162>
VStem: 144.687 63.4727<374.442 405.852> 288.007 96.0059<6.10449 73.9766> 464.006 63.9805<314.78 405.133>
LayerCount: 2
Fore
SplineSet
296.013671875 512.029296875 m 2
 296.013671875 512.029296875 375.986328125 511.953125 375.982421875 511.95703125 c 1
 459.873046875 511.95703125 527.986328125 443.844726562 527.986328125 359.953125 c 0
 527.974609375 276.072265625 459.866210938 207.973632812 375.982421875 207.973632812 c 0
 371.581054688 207.963867188 368.009765625 204.392578125 368 199.991210938 c 2
 368 152.000976562 l 1
 304.01953125 152.000976562 l 1
 304.01953125 152.000976562 304.01953125 199.9921875 304.01953125 199.991210938 c 1
 304.02734375 239.71875 336.279296875 271.970703125 376.006835938 271.977539062 c 0
 424.57421875 271.978515625 464.005859375 311.409179688 464.005859375 359.977539062 c 2
 464.005859375 360.000976562 l 2
 464.005859375 408.569335938 424.575195312 448.000976562 376.006835938 448.000976562 c 2
 376.006835938 448.000976562 296.01171875 447.931640625 296.013671875 448.000976562 c 1
 249.150390625 447.999023438 210.79296875 411.217773438 208.159179688 365.008789062 c 1
 208.159179688 365.008789062 144.703125 374.594726562 144.686523438 374.442382812 c 1
 152.028320312 451.51171875 217.03515625 512.029296875 296.013671875 512.029296875 c 2
336.022460938 88.044921875 m 2
 362.509765625 88.0400390625 384.012695312 66.5341796875 384.012695312 40.044921875 c 2
 384.012695312 40.0302734375 l 2
 384.0078125 13.544921875 362.506835938 -7.9560546875 336.022460938 -7.9609375 c 2
 336.006835938 -7.9609375 l 2
 309.517578125 -7.9609375 288.01171875 13.5419921875 288.006835938 40.0302734375 c 2
 288.005859375 40.044921875 l 2
 288.005859375 66.537109375 309.514648438 88.044921875 336.005859375 88.044921875 c 2
 336.022460938 88.044921875 l 2
EndSplineSet
Validated: 37
EndChar

StartChar: t.sewi
Encoding: 989530 989530 90
Width: 672
VWidth: 1024
Flags: W
HStem: -8.00098 64.0039<117.805 169.788 246.194 297.796 374.183 426.161> 0.00585938 21G<559.989 623.993>
VStem: 47.9805 64.0039<61.9108 127.985> 175.989 64.0039<61.9108 287.855> 303.997 63.9805<61.9108 383.791> 431.981 64.0039<61.9108 447.749> 559.989 64.0039<0.00585938 512.014>
LayerCount: 2
Fore
SplineSet
559.989257812 512.013671875 m 1x7e
 623.993164062 512.013671875 l 1
 623.993164062 0.005859375 l 1
 559.989257812 0.005859375 l 1
 559.989257812 512.013671875 l 1x7e
431.981445312 448.009765625 m 1
 495.985351562 448.009765625 l 1
 495.985351562 448.009765625 495.978515625 87.9990234375 495.985351562 88.005859375 c 1
 495.985351562 35.021484375 452.962890625 -8.0009765625 399.979492188 -8.0009765625 c 0
 375.428710938 -7.9931640625 352.977539062 1.263671875 335.999023438 16.4541015625 c 1
 319.014648438 1.2587890625 296.5546875 -7.9990234375 271.995117188 -8.0009765625 c 0
 247.434570312 -7.9990234375 224.974609375 1.2587890625 207.991210938 16.4541015625 c 1
 191.006835938 1.2587890625 168.546875 -7.9990234375 143.987304688 -8.0009765625 c 0
 91.0029296875 -8.0009765625 47.98046875 35.021484375 47.98046875 88.005859375 c 2
 47.98046875 128.013671875 l 1
 111.984375 128.013671875 l 1
 111.984375 128.013671875 111.986328125 88.00390625 111.984375 88.005859375 c 1
 111.984375 70.34375 126.325195312 56.0029296875 143.987304688 56.0029296875 c 0
 161.6484375 56.0029296875 175.989257812 70.34375 175.989257812 88.005859375 c 2
 175.989257812 288 l 1
 239.993164062 288 l 1
 239.993164062 288 239.995117188 88.00390625 239.993164062 88.005859375 c 1
 239.993164062 70.34375 254.333007812 56.0029296875 271.995117188 56.0029296875 c 0
 289.65625 56.0029296875 303.997070312 70.34375 303.997070312 88.005859375 c 2
 303.997070312 384.005859375 l 1
 367.977539062 384.005859375 l 1
 367.977539062 384.005859375 367.978515625 88.00390625 367.977539062 88.005859375 c 1
 367.977539062 70.34375 382.317382812 56.0029296875 399.979492188 56.0029296875 c 0xbe
 417.640625 56.0029296875 431.981445312 70.34375 431.981445312 88.005859375 c 2
 431.981445312 448.009765625 l 1
EndSplineSet
Validated: 33
EndChar

StartChar: t.sijelo
Encoding: 989531 989531 91
Width: 672
VWidth: 1024
Flags: W
HStem: 383.996 64.0039<175.999 304.008 367.987 495.996>
VStem: 111.995 64.0039<64 383.996> 304.008 63.9795<64 383.996> 495.996 64.0039<64 383.996>
CounterMasks: 1 70
LayerCount: 2
Fore
SplineSet
111.995117188 448 m 1
 560 448 l 1
 560 64 l 1
 495.99609375 64 l 1
 495.99609375 383.99609375 l 1
 367.987304688 383.99609375 l 1
 367.987304688 64 l 1
 304.0078125 64 l 1
 304.0078125 383.99609375 l 1
 175.999023438 383.99609375 l 1
 175.999023438 64 l 1
 111.995117188 64 l 1
 111.995117188 448 l 1
EndSplineSet
Validated: 1
EndChar

StartChar: t.sike
Encoding: 989532 989532 92
Width: 672
VWidth: 1024
Flags: W
HStem: -15.9863 63.9805<263.035 408.944> 128.008 63.9805<297.235 374.774> 319.996 64.0039<297.234 374.775> 463.996 64.0039<263.033 408.945>
VStem: 64.0068 63.9805<183.042 328.951> 208.017 64.0039<217.224 294.763> 400.004 64.0039<217.219 294.767> 543.989 64.0039<183.04 328.952>
LayerCount: 2
Fore
SplineSet
335.98828125 528 m 0
 486.108398438 528 607.993164062 406.116210938 607.993164062 255.995117188 c 0
 607.982421875 105.8828125 486.102539062 -15.986328125 335.98828125 -15.986328125 c 0
 185.8828125 -15.9755859375 64.017578125 105.889648438 64.0068359375 255.995117188 c 0
 64.0068359375 406.109375 185.875976562 527.989257812 335.98828125 528 c 0
335.98828125 463.99609375 m 0
 221.189453125 463.99609375 127.987304688 370.79296875 127.987304688 255.995117188 c 0
 127.987304688 141.196289062 221.189453125 47.994140625 335.98828125 47.994140625 c 0
 450.786132812 47.994140625 543.989257812 141.196289062 543.989257812 255.995117188 c 0
 543.989257812 370.79296875 450.786132812 463.99609375 335.98828125 463.99609375 c 0
336 384 m 0
 406.645507812 384 464.0078125 326.63671875 464.0078125 255.9921875 c 0
 463.999023438 185.354492188 406.639648438 128.0078125 336 128.0078125 c 0
 265.368164062 128.016601562 208.025390625 185.360351562 208.016601562 255.9921875 c 0
 208.016601562 326.631835938 265.362304688 383.991210938 336 384 c 0
336 319.99609375 m 0
 300.686523438 319.985351562 272.020507812 291.307617188 272.020507812 255.9921875 c 0
 272.020507812 220.67578125 300.686523438 191.999023438 336 191.98828125 c 0
 371.322265625 191.98828125 400.00390625 220.668945312 400.00390625 255.9921875 c 0
 400.00390625 291.314453125 371.322265625 319.99609375 336 319.99609375 c 0
EndSplineSet
Validated: 1
EndChar

StartChar: t.sin
Encoding: 989533 989533 93
Width: 672
VWidth: 1024
Flags: W
HStem: 160 64<111.999 271.999 400.011 560.011>
VStem: 304.046 64<256.018 416.018>
LayerCount: 2
Fore
SplineSet
304.045898438 256.017578125 m 1
 304.045898438 416.017578125 l 1
 368.045898438 416.017578125 l 1
 368.045898438 256.017578125 l 1
 304.045898438 256.017578125 l 1
111.999023438 160 m 1
 111.999023438 224 l 1
 271.999023438 224 l 1
 271.999023438 160 l 1
 111.999023438 160 l 1
400.010742188 160 m 1
 400.010742188 224 l 1
 560.010742188 224 l 1
 560.010742188 160 l 1
 400.010742188 160 l 1
EndSplineSet
Validated: 1
EndChar

StartChar: t.sina
Encoding: 989534 989534 94
Width: 672
VWidth: 1024
Flags: W
HStem: 0 63.998<292.241 379.759> 224 64<291.381 379.759>
VStem: 192 64<101.199 183.963> 416.001 63.999<100.241 187.759>
LayerCount: 2
Fore
SplineSet
480 144 m 0
 480 64.5244140625 415.4765625 0 336 0 c 0
 256.524414062 0 192 64.5244140625 192 144 c 2
 192 144.001953125 l 2
 192.000976562 286.7890625 251.627929688 423.08984375 356.489257812 520.00390625 c 1
 399.927734375 473.00390625 l 1
 341.017578125 418.557617188 298.421875 349.905273438 275.4765625 274.6640625 c 1
 293.848632812 283.173828125 314.4375 288 336 288 c 0
 415.4765625 288 480 223.475585938 480 144 c 0
416.000976562 144 m 0
 416 188.153320312 380.153320312 224 336 224 c 0
 291.84765625 224 256 188.153320312 256 144 c 0
 256 99.8466796875 291.846679688 63.998046875 336 63.998046875 c 0
 380.153320312 63.998046875 416.000976562 99.8466796875 416.000976562 144 c 0
EndSplineSet
Validated: 1
EndChar

StartChar: t.sinpin
Encoding: 989535 989535 95
Width: 672
VWidth: 1024
Flags: W
HStem: -0 64.0039<175.987 303.995> 207.999 96<430.059 497.941> 448.004 64.0039<175.987 303.995>
VStem: 175.987 192.012<0 64.0039 448.004 512.008> 303.995 64.0039<64.0039 448.004> 416 96<222.058 289.94>
LayerCount: 2
Fore
SplineSet
175.987304688 512.0078125 m 1xf4
 367.999023438 512.0078125 l 1
 367.999023438 -0 l 1
 175.987304688 -0 l 1
 175.987304688 64.00390625 l 1xf4
 303.995117188 64.00390625 l 1
 303.995117188 448.00390625 l 1xec
 175.987304688 448.00390625 l 1
 175.987304688 512.0078125 l 1xf4
512 255.999023438 m 0
 512 229.489257812 490.509765625 207.999023438 464 207.999023438 c 0
 437.490234375 207.999023438 416 229.489257812 416 255.999023438 c 0
 416 282.508789062 437.490234375 303.999023438 464 303.999023438 c 0
 490.509765625 303.999023438 512 282.508789062 512 255.999023438 c 0
EndSplineSet
Validated: 1
EndChar

StartChar: t.sitelen
Encoding: 989536 989536 96
Width: 672
VWidth: 1024
Flags: W
HStem: -0.0078125 64.0039<176.005 496.001> 216.001 80<209.754 270.246 305.754 366.246 401.754 462.246> 448 64.001<176.001 496.001>
VStem: 112.001 64.0039<63.9961 448> 200 80<225.755 286.247> 296 80<225.754 286.246> 392 80<225.755 286.247> 496.001 64<64 448.001>
LayerCount: 2
Fore
SplineSet
112.000976562 512.000976562 m 1
 560.000976562 512.0078125 l 1
 560.000976562 -0 l 1
 112.000976562 -0.0078125 l 1
 112.000976562 512.000976562 l 1
176.000976562 448 m 1
 176.004882812 63.99609375 l 1
 496.000976562 64 l 1
 496.000976562 448.000976562 l 1
 176.000976562 448 l 1
200 256.000976562 m 0
 200 278.091796875 217.908203125 296.000976562 240 296.000976562 c 0
 262.091796875 296.000976562 280 278.091796875 280 256.000976562 c 0
 280 233.909179688 262.091796875 216.000976562 240 216.000976562 c 0
 217.908203125 216.000976562 200 233.909179688 200 256.000976562 c 0
296 256 m 0
 296 278.091796875 313.908203125 296 336 296 c 0
 358.091796875 296 376 278.091796875 376 256 c 0
 376 233.909179688 358.091796875 216 336 216 c 0
 313.908203125 216 296 233.909179688 296 256 c 0
392 256.000976562 m 0
 392 278.091796875 409.909179688 296.000976562 432 296.000976562 c 0
 454.091796875 296.000976562 472 278.091796875 472 256.000976562 c 0
 472 233.909179688 454.091796875 216.000976562 432 216.000976562 c 0
 409.909179688 216.000976562 392 233.909179688 392 256.000976562 c 0
EndSplineSet
Validated: 1
EndChar

StartChar: t.sona
Encoding: 989537 989537 97
Width: 672
VWidth: 1024
Flags: W
HStem: -0.00683594 64.0127<240.001 432.001> 256 64<240.001 432.001>
VStem: 176 64.001<64.0059 256> 304.001 64<399.999 543.999> 432.001 64<63.998 255.992>
LayerCount: 2
Fore
SplineSet
304.000976562 399.999023438 m 1
 304.000976562 543.999023438 l 1
 368.000976562 543.999023438 l 1
 368.000976562 399.999023438 l 1
 304.000976562 399.999023438 l 1
404.423828125 391.030273438 m 1
 471.379882812 518.517578125 l 1
 528.041015625 488.759765625 l 1
 461.084960938 361.272460938 l 1
 404.423828125 391.030273438 l 1
267.666992188 390.250976562 m 1
 211.006835938 360.493164062 l 1
 144.05078125 487.98046875 l 1
 200.711914062 517.73828125 l 1
 267.666992188 390.250976562 l 1
176 320 m 1
 496.000976562 320 l 1
 496.000976562 -0.0068359375 l 1
 176 -0.0068359375 l 1
 176 320 l 1
240.000976562 256 m 1
 240.000976562 64.005859375 l 1
 432.000976562 63.998046875 l 1
 432.000976562 255.9921875 l 1
 240.000976562 256 l 1
EndSplineSet
Validated: 1
EndChar

StartChar: t.soweli
Encoding: 989538 989538 98
Width: 672
VWidth: 1024
Flags: W
HStem: 0 191.988<63.9961 128 176.016 239.995 288.01 352.015 400.041 462.91> 264.011 80<305.775 366.267> 295.988 80<417.743 478.235> 448.004 64.0049<64.2512 473.088>
VStem: 63.9961 64.0039<0 191.988> 176.016 63.9795<0 191.988> 288.01 64.0049<0 191.988> 296.021 80<273.765 334.256> 400.029 64.0039<0 137.459> 407.989 80<305.743 366.234> 544.002 64.0283<262.774 377.658>
LayerCount: 2
Fore
SplineSet
63.99609375 512.008789062 m 1x9ca0
 63.99609375 512.008789062 416.030273438 511.99609375 416.018554688 512.008789062 c 1
 521.986328125 512.008789062 608.030273438 425.963867188 608.030273438 319.99609375 c 0
 608.025390625 230.6328125 546.763671875 155.466796875 464.033203125 134.104492188 c 1
 464.033203125 0 l 1
 400.029296875 0 l 1
 400.029296875 191.98828125 l 1
 400.029296875 191.98828125 416.001953125 191.99609375 415.994140625 191.98828125 c 1
 486.639648438 191.98828125 544.001953125 249.3515625 544.001953125 319.99609375 c 0
 544.001953125 390.641601562 486.639648438 448.00390625 415.994140625 448.00390625 c 2
 63.99609375 448.00390625 l 1
 63.99609375 512.008789062 l 1x9ca0
63.99609375 191.98828125 m 1
 128 191.98828125 l 1
 128 0 l 1
 63.99609375 0 l 1
 63.99609375 191.98828125 l 1
176.015625 191.98828125 m 1
 239.995117188 191.98828125 l 1
 239.995117188 0 l 1
 176.015625 0 l 1
 176.015625 191.98828125 l 1
288.009765625 191.98828125 m 1x9e20
 352.014648438 191.98828125 l 1
 352.014648438 0 l 1
 288.009765625 0 l 1
 288.009765625 191.98828125 l 1x9e20
407.989257812 335.98828125 m 0xbc60
 407.989257812 358.080078125 425.897460938 375.98828125 447.989257812 375.98828125 c 0
 470.081054688 375.98828125 487.989257812 358.080078125 487.989257812 335.98828125 c 0
 487.989257812 313.897460938 470.081054688 295.98828125 447.989257812 295.98828125 c 0
 425.897460938 295.98828125 407.989257812 313.897460938 407.989257812 335.98828125 c 0xbc60
296.020507812 304.010742188 m 0xdd20
 296.020507812 326.1015625 313.9296875 344.010742188 336.020507812 344.010742188 c 0
 358.112304688 344.010742188 376.020507812 326.1015625 376.020507812 304.010742188 c 0
 376.020507812 281.918945312 358.112304688 264.010742188 336.020507812 264.010742188 c 0
 313.9296875 264.010742188 296.020507812 281.918945312 296.020507812 304.010742188 c 0xdd20
EndSplineSet
Validated: 33
EndChar

StartChar: t.suli
Encoding: 989539 989539 99
Width: 672
VWidth: 1024
Flags: W
HStem: -0.000976562 21G<295.246 376.749>
LayerCount: 2
Fore
SplineSet
80 512 m 1
 149.857421875 512 l 1
 335.9921875 86.5400390625 l 1
 522.125976562 512 l 1
 591.983398438 512 l 1
 368 -0.0009765625 l 1
 303.99609375 -0.0009765625 l 1
 80 512 l 1
EndSplineSet
Validated: 1
EndChar

StartChar: t.suno
Encoding: 989540 989540 100
Width: 672
VWidth: 1024
Flags: W
HStem: -0.0078125 160.01<305.227 366.774> 223.981 64.0049<80.0811 182.472 489.927 591.92> 351.99 160.01<305.224 366.778>
VStem: 80.0088 159.985<225.213 286.761> 303.999 64.0039<0.0644844 102.457 409.933 511.928> 432.007 159.985<225.213 286.761>
LayerCount: 2
Fore
SplineSet
303.999023438 512 m 1
 368.002929688 512 l 1
 368.002929688 512 368.120117188 412.634765625 368.002929688 412.752929688 c 1
 430.549804688 399.974609375 479.978515625 350.537109375 492.745117188 287.986328125 c 1
 591.9921875 287.986328125 l 1
 591.9921875 223.981445312 l 1
 591.9921875 223.981445312 492.243164062 223.8671875 492.358398438 223.981445312 c 1
 479.502929688 161.698242188 430.286132812 112.481445312 368.002929688 99.6259765625 c 1
 368.002929688 -0.0078125 l 1
 303.999023438 -0.0078125 l 1
 303.999023438 -0.0078125 303.883789062 99.7412109375 303.999023438 99.6259765625 c 1
 241.71484375 112.481445312 192.498046875 161.698242188 179.642578125 223.981445312 c 1
 80.0087890625 223.981445312 l 1
 80.0087890625 287.986328125 l 1
 80.0087890625 287.986328125 179.7578125 288.100585938 179.642578125 287.986328125 c 1
 192.489257812 350.279296875 241.708984375 399.506835938 303.999023438 412.365234375 c 1
 303.999023438 512 l 1
336.000976562 351.990234375 m 0
 283.016601562 351.990234375 239.994140625 308.967773438 239.994140625 255.983398438 c 0
 240.004882812 203.008789062 283.022460938 160.001953125 336.000976562 160.001953125 c 0
 388.978515625 160.001953125 431.997070312 203.008789062 432.006835938 255.983398438 c 0
 432.006835938 308.967773438 388.984375 351.990234375 336.000976562 351.990234375 c 0
EndSplineSet
Validated: 37
EndChar

StartChar: t.supa
Encoding: 989541 989541 101
Width: 672
VWidth: 1024
Flags: W
HStem: 287.996 64.0039<79.9961 176.002 240.006 431.994 495.998 592.004>
VStem: 176 64.0039<128 287.996> 431.992 64.0039<128 287.996>
LayerCount: 2
Fore
SplineSet
79.99609375 352 m 1
 592.00390625 352 l 1
 592.00390625 287.99609375 l 1
 495.998046875 287.99609375 l 1
 495.99609375 128 l 1
 431.9921875 128 l 1
 431.994140625 287.99609375 l 1
 240.005859375 287.99609375 l 1
 240.00390625 128 l 1
 176 128 l 1
 176.001953125 287.99609375 l 1
 79.99609375 287.99609375 l 1
 79.99609375 352 l 1
EndSplineSet
Validated: 1
EndChar

StartChar: t.suwi
Encoding: 989542 989542 102
Width: 672
VWidth: 1024
Flags: W
HStem: 55.9961 96<302.055 369.937>
VStem: 287.996 96<70.0549 137.937>
LayerCount: 2
Fore
SplineSet
287.99609375 103.99609375 m 0
 287.99609375 130.505859375 309.486328125 151.99609375 335.99609375 151.99609375 c 0
 362.505859375 151.99609375 383.99609375 130.505859375 383.99609375 103.99609375 c 0
 383.99609375 77.486328125 362.505859375 55.99609375 335.99609375 55.99609375 c 0
 309.486328125 55.99609375 287.99609375 77.486328125 287.99609375 103.99609375 c 0
160.001953125 416.001953125 m 1
 223.981445312 416.001953125 l 1
 303.999023438 223.990234375 l 1
 234.649414062 223.990234375 l 1
 191.979492188 326.40625 l 1
 149.334960938 223.990234375 l 1
 79.984375 223.990234375 l 1
 160.001953125 416.001953125 l 1
447.99609375 416.001953125 m 1
 512 416.001953125 l 1
 591.993164062 223.990234375 l 1
 522.642578125 223.990234375 l 1
 479.998046875 326.40625 l 1
 437.328125 223.990234375 l 1
 367.978515625 223.990234375 l 1
 447.99609375 416.001953125 l 1
EndSplineSet
Validated: 1
EndChar

StartChar: t.tan
Encoding: 989543 989543 103
Width: 672
VWidth: 1024
Flags: W
HStem: 159.986 64.0039<152.2 272.008> 319.996 64.0039<258.349 410.471>
VStem: 48.0186 64.0039<277.012 383.922> 560.002 64.0039<96.0059 167.944>
LayerCount: 2
Fore
SplineSet
48.0185546875 384 m 1
 112.022460938 384 l 1
 112.022460938 384 111.919921875 276.814453125 112.022460938 277.01171875 c 0
 164.833007812 342.3671875 245.525390625 383.995117188 336.01171875 384 c 0
 494.958984375 383.997070312 624.002929688 254.953125 624.005859375 96.005859375 c 1
 624.005859375 96.005859375 560.001953125 96.0068359375 560.001953125 96.005859375 c 1
 559.99609375 219.626953125 459.6328125 319.990234375 336.01171875 319.99609375 c 0
 259.870117188 319.990234375 192.677734375 282.125976562 152.200195312 223.990234375 c 1
 272.0078125 223.990234375 l 1
 272.0078125 159.986328125 l 1
 48.0185546875 159.986328125 l 1
 48.0185546875 384 l 1
EndSplineSet
Validated: 33
EndChar

StartChar: t.taso
Encoding: 989544 989544 104
Width: 672
VWidth: 1024
Flags: W
HStem: 0 21G<368.008 432.012> 223.99 64.0039<207.998 368.008>
VStem: 368.008 64.0039<0 223.99 287.994 511.984>
LayerCount: 2
Fore
SplineSet
368.0078125 511.984375 m 1
 432.01171875 511.984375 l 1
 432.01171875 0 l 1
 368.0078125 0 l 1
 368.0078125 223.990234375 l 1
 207.998046875 223.990234375 l 1
 207.998046875 287.994140625 l 1
 368.0078125 287.994140625 l 1
 368.0078125 511.984375 l 1
EndSplineSet
Validated: 1
EndChar

StartChar: t.tawa
Encoding: 989545 989545 105
Width: 672
VWidth: 1024
Flags: W
HStem: -0.000976562 64.0039<447.954 575.962>
VStem: 383.998 63.9561<64.0029 405.302>
LayerCount: 2
Fore
SplineSet
383.826171875 513.256835938 m 1
 447.999023438 511.999023438 l 1
 447.954101562 64.0029296875 l 1
 575.961914062 64.0029296875 l 1
 575.961914062 -0.0009765625 l 1
 383.998046875 -0.0009765625 l 1
 384.043945312 405.301757812 l 1
 186.2265625 141.544921875 l 1
 309.686523438 51.7548828125 l 1
 272.048828125 -0.0087890625 l 1
 96.6064453125 128.749023438 l 1
 383.826171875 513.256835938 l 1
EndSplineSet
Validated: 1
EndChar

StartChar: t.telo
Encoding: 989546 989546 106
Width: 672
VWidth: 1024
Flags: W
HStem: 51.8643 63.9805<185.687 279.268> 172.132 64.0039<392.756 486.332> 275.853 64.0039<185.687 279.268> 396.145 64.0039<392.756 486.332>
VStem: 79.9961 64.0039<158.65 203.844 382.651 427.856> 528 64.0039<83.8662 129.087 307.854 353.077>
LayerCount: 2
Fore
SplineSet
79.99609375 427.856445312 m 1
 144 427.856445312 l 1
 144 379.260742188 183.403320312 339.856445312 231.999023438 339.856445312 c 0
 263.493164062 339.856445312 292.543945312 356.66796875 308.266601562 383.953125 c 0
 335.407226562 431.09765625 385.647460938 460.1484375 440.024414062 460.1484375 c 0
 523.959960938 460.1484375 592.00390625 391.790039062 592.00390625 307.854492188 c 1
 528 307.854492188 l 1
 528 356.450195312 488.620117188 396.14453125 440.024414062 396.14453125 c 0
 408.530273438 396.14453125 379.479492188 379.333007812 363.756835938 352.047851562 c 0
 336.616210938 304.903320312 286.375976562 275.852539062 231.999023438 275.852539062 c 0
 148.063476562 275.852539062 79.99609375 343.896484375 79.99609375 427.856445312 c 1
79.99609375 203.84375 m 1
 144 203.84375 l 1
 144 155.248046875 183.403320312 115.844726562 231.999023438 115.844726562 c 0
 263.493164062 115.844726562 292.543945312 132.6796875 308.266601562 159.96484375 c 0
 335.407226562 207.084960938 385.647460938 236.135742188 440.024414062 236.135742188 c 0
 523.959960938 236.135742188 592.00390625 167.802734375 592.00390625 83.8662109375 c 1
 528 83.8662109375 l 1
 528 132.461914062 488.620117188 172.131835938 440.024414062 172.131835938 c 0
 408.530273438 172.131835938 379.479492188 155.321289062 363.756835938 128.036132812 c 0
 336.616210938 80.9150390625 286.375976562 51.8642578125 231.999023438 51.8642578125 c 0
 148.063476562 51.8642578125 79.99609375 119.908203125 79.99609375 203.84375 c 1
EndSplineSet
Validated: 1
EndChar

StartChar: t.tenpo
Encoding: 989547 989547 107
Width: 672
VWidth: 1024
Flags: W
HStem: -7.99609 64.0039<263.231 408.771> 224.004 64<367.996 447.973> 232.004 56<303.996 367.996> 455.997 64.0039<263.231 408.771>
VStem: 72.002 64.0049<183.232 328.772> 303.996 64<288.004 408.004> 535.995 64.0039<183.232 328.772>
LayerCount: 2
Fore
SplineSet
303.99609375 232.00390625 m 1xbe
 303.99609375 408.00390625 l 1
 367.99609375 408.00390625 l 1
 367.99609375 232.00390625 l 1
 303.99609375 232.00390625 l 1xbe
303.97265625 288.00390625 m 1
 447.97265625 288.00390625 l 1
 447.97265625 224.00390625 l 1
 303.97265625 224.00390625 l 1xde
 303.97265625 288.00390625 l 1
336.000976562 520.000976562 m 0
 481.705078125 520 599.998046875 401.706054688 599.999023438 256.001953125 c 0
 599.998046875 110.297851562 481.705078125 -7.9951171875 336.000976562 -7.99609375 c 0
 190.296875 -7.9951171875 72.0029296875 110.297851562 72.001953125 256.001953125 c 0
 72.0029296875 401.706054688 190.296875 520 336.000976562 520.000976562 c 0
336.000976562 455.997070312 m 0
 225.622070312 455.993164062 136.009765625 366.380859375 136.006835938 256.001953125 c 0
 136.009765625 145.624023438 225.622070312 56.0107421875 336.000976562 56.0078125 c 0
 446.37890625 56.0107421875 535.9921875 145.624023438 535.995117188 256.001953125 c 0
 535.9921875 366.380859375 446.37890625 455.993164062 336.000976562 455.997070312 c 0
EndSplineSet
Validated: 5
EndChar

StartChar: t.toki
Encoding: 989548 989548 108
Width: 672
VWidth: 1024
Flags: W
HStem: -8.00098 64.0039<283.712 388.337> 280.018 63.9795<283.712 388.337>
VStem: 160.025 63.9805<115.686 220.311> 304.001 64<399.998 543.998> 448.02 64.0039<115.686 220.311>
LayerCount: 2
Fore
SplineSet
304.000976562 399.998046875 m 1
 304.000976562 543.998046875 l 1
 368.000976562 543.998046875 l 1
 368.000976562 399.998046875 l 1
 304.000976562 399.998046875 l 1
404.427734375 391.020507812 m 1
 471.383789062 518.5078125 l 1
 528.043945312 488.749023438 l 1
 461.088867188 361.262695312 l 1
 404.427734375 391.020507812 l 1
267.64453125 390.245117188 m 1
 210.983398438 360.486328125 l 1
 144.02734375 487.973632812 l 1
 200.688476562 517.731445312 l 1
 267.64453125 390.245117188 l 1
336.024414062 343.997070312 m 0
 433.161132812 343.997070312 512.0234375 265.134765625 512.0234375 167.998046875 c 0
 512.0234375 70.8623046875 433.161132812 -8 336.024414062 -8.0009765625 c 0
 238.888671875 -8 160.026367188 70.8623046875 160.025390625 167.998046875 c 0
 160.026367188 265.134765625 238.888671875 343.997070312 336.024414062 343.997070312 c 0
336.024414062 280.017578125 m 2
 336.005859375 280.017578125 l 2
 274.19140625 280.017578125 224.005859375 229.83203125 224.005859375 168.017578125 c 2
 224.005859375 167.998046875 l 2
 224.0078125 106.186523438 274.192382812 56.0029296875 336.004882812 56.0029296875 c 2
 336.024414062 56.0029296875 l 2
 397.834960938 56.005859375 448.016601562 106.1875 448.01953125 167.998046875 c 2
 448.01953125 168.017578125 l 2
 448.01953125 229.830078125 397.836914062 280.014648438 336.024414062 280.017578125 c 2
EndSplineSet
Validated: 1
EndChar

StartChar: t.tomo
Encoding: 989549 989549 109
Width: 672
VWidth: 1024
Flags: W
HStem: 0.000976562 64.0039<176.032 496.028>
VStem: 112.028 64.0039<64.0049 231.948> 496.028 64.0039<64.0049 231.948>
LayerCount: 2
Fore
SplineSet
336.018554688 511.984375 m 1
 560.032226562 255.9921875 l 1
 560.032226562 0.0009765625 l 1
 112.028320312 0.0009765625 l 1
 112.028320312 255.9921875 l 1
 336.018554688 511.984375 l 1
336.018554688 414.79296875 m 1
 176.032226562 231.948242188 l 1
 176.032226562 64.0048828125 l 1
 496.028320312 64.0048828125 l 1
 496.028320312 231.948242188 l 1
 336.018554688 414.79296875 l 1
EndSplineSet
Validated: 1
EndChar

StartChar: t.tu
Encoding: 989550 989550 110
Width: 672
VWidth: 1024
Flags: W
HStem: 0.000976562 21G<223.977 287.977 384.016 448.016>
VStem: 223.977 64<0.000976562 512.001> 384.016 64<0.000976562 512.001>
LayerCount: 2
Fore
SplineSet
223.9765625 0.0009765625 m 1
 223.9765625 512.000976562 l 1
 287.9765625 512.000976562 l 1
 287.9765625 0.0009765625 l 1
 223.9765625 0.0009765625 l 1
384.015625 0.0009765625 m 1
 384.015625 512.000976562 l 1
 448.015625 512.000976562 l 1
 448.015625 0.0009765625 l 1
 384.015625 0.0009765625 l 1
EndSplineSet
Validated: 1
EndChar

StartChar: t.unpa
Encoding: 989551 989551 111
Width: 672
VWidth: 1024
Flags: W
HStem: 15.999 63.9795<292.256 379.748> 432.098 63.8828<181.214 271.336 400.689 490.807>
VStem: 79.9961 64.0039<308.384 395.801> 192.015 64.0039<117.196 159.996 160.033 207.987 277.651 309.502> 416.005 64.0039<117.125 207.987 277.53 309.381> 528 64.0039<308.328 395.739>
LayerCount: 2
Fore
SplineSet
224.016601562 495.98046875 m 0
 264.096679688 495.791015625 302.279296875 486.22265625 336.01171875 469.590820312 c 1
 369.744140625 486.22265625 407.926757812 495.791015625 448.006835938 495.98046875 c 0
 527.48046875 495.979492188 592.001953125 431.45703125 592.00390625 351.984375 c 0
 592.000976562 283.540039062 544.057617188 226.19140625 480.008789062 211.590820312 c 1
 480.008789062 211.590820312 480.008789062 159.998046875 480.008789062 159.99609375 c 0
 480.008789062 159.979492188 480.008789062 159.96484375 480.008789062 159.948242188 c 0
 480.008789062 159.932617188 480.008789062 159.916015625 480.008789062 159.899414062 c 0
 479.954101562 80.470703125 415.452148438 16.0009765625 336.01171875 15.9990234375 c 0
 256.538085938 16.0009765625 192.016601562 80.5224609375 192.014648438 159.99609375 c 2
 192.014648438 159.99609375 191.928710938 211.584960938 192.014648438 211.590820312 c 1
 127.955078125 226.182617188 80.0009765625 283.533203125 79.99609375 351.984375 c 0
 79.9970703125 431.458007812 144.541992188 495.98046875 224.016601562 495.98046875 c 0
224.016601562 431.9765625 m 1
 224.016601562 431.9765625 224.017578125 432.09765625 224.016601562 432.09765625 c 2
 224 432.09765625 l 2
 179.848632812 432.09765625 144.00390625 396.254882812 144 352.104492188 c 0
 144.006835938 318.254882812 165.0390625 289.3203125 194.772460938 277.651367188 c 1
 203.44921875 335.49609375 231.444335938 387.288085938 272.056640625 425.6875 c 1
 256.689453125 429.720703125 240.626953125 431.916015625 224.016601562 431.9765625 c 1
448.006835938 431.9765625 m 1
 448.006835938 431.9765625 448.060546875 431.8359375 448.006835938 431.856445312 c 0
 431.396484375 431.794921875 415.333984375 429.600585938 399.967773438 425.56640625 c 1
 440.579101562 387.166992188 468.57421875 335.375 477.250976562 277.530273438 c 1
 506.974609375 289.20703125 527.997070312 318.138671875 528 351.984375 c 0
 527.99609375 396.131835938 492.154296875 431.97265625 448.006835938 431.9765625 c 1
336.01171875 395.354492188 m 1
 295.864257812 366.573242188 267.426757812 322.62890625 258.6796875 271.991210938 c 1
 258.6796875 271.991210938 413.4921875 272.064453125 413.319335938 271.991210938 c 1
 404.579101562 322.625 376.150390625 366.569335938 336.01171875 395.354492188 c 1
256.018554688 207.987304688 m 1
 256.018554688 159.99609375 l 2
 256.018554688 159.978515625 l 2
 256.018554688 115.828125 291.862304688 79.982421875 336.01171875 79.978515625 c 0
 380.134765625 79.982421875 415.9609375 115.786132812 416.004882812 159.899414062 c 0
 416.004882812 159.916015625 416.004882812 159.930664062 416.004882812 159.946289062 c 0
 416.004882812 159.962890625 416.004882812 159.979492188 416.004882812 159.99609375 c 2
 416.004882812 207.987304688 l 1
 256.018554688 207.987304688 l 1
EndSplineSet
Validated: 37
EndChar

StartChar: t.uta
Encoding: 989552 989552 112
Width: 672
VWidth: 1024
Flags: W
HStem: -8.01367 96<302.078 369.961> 127.983 64.0039<278.329 393.65> 319.996 64.0039<207.98 463.996>
VStem: 144 63.9805<262.928 319.996> 288.02 96<6.04517 73.9275> 463.996 64.0049<262.926 319.996>
LayerCount: 2
Fore
SplineSet
144 384 m 1
 528.000976562 384 l 1
 528.000976562 384 527.98828125 319.983398438 528.000976562 319.99609375 c 1
 528.000976562 214.028320312 441.956054688 127.983398438 335.98828125 127.983398438 c 0
 230.026367188 127.990234375 144 214.032226562 144 319.99609375 c 2
 144 384 l 1
207.98046875 319.99609375 m 1
 207.98046875 249.350585938 265.342773438 191.987304688 335.98828125 191.987304688 c 0
 406.6328125 191.987304688 463.99609375 249.350585938 463.99609375 319.99609375 c 1
 207.98046875 319.99609375 l 1
288.01953125 39.986328125 m 0
 288.01953125 66.49609375 309.509765625 87.986328125 336.01953125 87.986328125 c 0
 362.529296875 87.986328125 384.01953125 66.49609375 384.01953125 39.986328125 c 0
 384.01953125 13.4765625 362.529296875 -8.013671875 336.01953125 -8.013671875 c 0
 309.509765625 -8.013671875 288.01953125 13.4765625 288.01953125 39.986328125 c 0
EndSplineSet
Validated: 33
EndChar

StartChar: t.utala
Encoding: 989553 989553 113
Width: 672
VWidth: 1024
Flags: W
HStem: 0 21G<194.672 222.673 449.334 477.335>
LayerCount: 2
Fore
SplineSet
508.38671875 517.836914062 m 1
 560.005859375 480.005859375 l 1
 208.006835938 0 l 1
 79.9990234375 191.98828125 l 1
 133.263671875 227.497070312 l 1
 210.499023438 111.631835938 l 1
 508.38671875 517.836914062 l 1
163.620117188 517.836914062 m 1
 461.5078125 111.631835938 l 1
 538.743164062 227.497070312 l 1
 592.0078125 191.98828125 l 1
 464 0 l 1
 112.000976562 480.005859375 l 1
 163.620117188 517.836914062 l 1
EndSplineSet
Validated: 5
EndChar

StartChar: t.walo
Encoding: 989554 989554 114
Width: 672
VWidth: 1024
Flags: W
HStem: -0.0078125 64.0039<183.504 488.405>
LayerCount: 2
Fore
SplineSet
335.966796875 512 m 1
 591.958984375 -0.0078125 l 1
 79.974609375 -0.0078125 l 1
 335.966796875 512 l 1
335.966796875 368.8984375 m 1
 183.50390625 63.99609375 l 1
 488.405273438 63.99609375 l 1
 335.966796875 368.8984375 l 1
461.858398438 221.891601562 m 1
 416.603515625 267.146484375 l 1
 546.7109375 397.25390625 l 1
 591.965820312 351.999023438 l 1
 461.858398438 221.891601562 l 1
210.073242188 221.88671875 m 1
 79.9658203125 351.994140625 l 1
 125.219726562 397.249023438 l 1
 255.328125 267.141601562 l 1
 210.073242188 221.88671875 l 1
EndSplineSet
Validated: 5
EndChar

StartChar: t.wan
Encoding: 989555 989555 115
Width: 672
VWidth: 1024
Flags: W
HStem: 0 21G<335.994 399.999>
VStem: 335.994 64.0049<0 421.493>
LayerCount: 2
Fore
SplineSet
335.994140625 511.984375 m 1
 399.999023438 511.984375 l 1
 399.999023438 0 l 1
 335.994140625 0 l 1
 335.994140625 421.493164062 l 1
 221.2421875 306.741210938 l 1
 175.984375 351.998046875 l 1
 335.994140625 511.984375 l 1
EndSplineSet
Validated: 1
EndChar

StartChar: t.waso
Encoding: 989556 989556 116
Width: 672
VWidth: 1024
Flags: W
HStem: 111.996 63.9805<288 467.047> 207.988 80<169.73 230.222> 239.996 80<273.726 334.218>
VStem: 159.976 80<217.743 278.234> 223.995 64.0049<-32 111.996> 263.972 80<249.75 310.242>
LayerCount: 2
Fore
SplineSet
314.631835938 519.9921875 m 1x88
 543.991210938 175.9765625 l 1
 543.991210938 111.99609375 l 1
 288 111.99609375 l 1
 288 -32 l 1
 223.995117188 -32 l 1
 223.995117188 175.9765625 l 1
 272.010742188 175.9765625 l 1
 287.975585938 175.9765625 l 1
 467.046875 175.9765625 l 1
 261.391601562 484.482421875 l 1
 314.631835938 519.9921875 l 1x88
543.967773438 175.9765625 m 1
 319.977539062 511.985351562 l 1025
263.971679688 279.99609375 m 0xa4
 263.971679688 302.087890625 281.880859375 319.99609375 303.971679688 319.99609375 c 0
 326.063476562 319.99609375 343.971679688 302.087890625 343.971679688 279.99609375 c 0
 343.971679688 257.905273438 326.063476562 239.99609375 303.971679688 239.99609375 c 0
 281.880859375 239.99609375 263.971679688 257.905273438 263.971679688 279.99609375 c 0xa4
159.975585938 247.98828125 m 0xd0
 159.975585938 270.080078125 177.884765625 287.98828125 199.975585938 287.98828125 c 0
 222.067382812 287.98828125 239.975585938 270.080078125 239.975585938 247.98828125 c 0
 239.975585938 225.897460938 222.067382812 207.98828125 199.975585938 207.98828125 c 0
 177.884765625 207.98828125 159.975585938 225.897460938 159.975585938 247.98828125 c 0xd0
EndSplineSet
Validated: 3
EndChar

StartChar: t.wawa
Encoding: 989557 989557 117
Width: 672
VWidth: 1024
Flags: W
HStem: 64 64.0039<297.229 374.771> 255.988 64.0039<297.225 374.776>
VStem: 207.992 64.0039<153.218 230.76> 400.004 64.0049<153.218 230.76>
LayerCount: 2
Fore
SplineSet
336 319.9921875 m 0
 406.645507812 319.9921875 464.008789062 262.62890625 464.008789062 191.984375 c 0
 463.999023438 121.346679688 406.639648438 64 336 64 c 0
 265.360351562 64 208.000976562 121.346679688 207.9921875 191.984375 c 0
 207.9921875 262.62890625 265.35546875 319.9921875 336 319.9921875 c 0
336 255.98828125 m 0
 300.677734375 255.98828125 271.99609375 227.306640625 271.99609375 191.984375 c 0
 272.0078125 156.670898438 300.684570312 128.00390625 336 128.00390625 c 0
 371.31640625 128.00390625 399.993164062 156.670898438 400.00390625 191.984375 c 0
 400.00390625 227.306640625 371.323242188 255.98828125 336 255.98828125 c 0
139.762695312 123.075195312 m 1
 48.0048828125 429.637695312 l 1
 109.317382812 447.989257812 l 1
 201.075195312 141.427734375 l 1
 139.762695312 123.075195312 l 1
470.927734375 141.440429688 m 1
 562.685546875 448.002929688 l 1
 623.998046875 429.651367188 l 1
 532.239257812 123.088867188 l 1
 470.927734375 141.440429688 l 1
EndSplineSet
Validated: 1
EndChar

StartChar: t.weka
Encoding: 989558 989558 118
Width: 672
VWidth: 1024
Flags: W
LayerCount: 2
Fore
SplineSet
157.221679688 480.002929688 m 1
 303.9765625 333.248046875 l 1
 258.71875 287.990234375 l 1
 111.963867188 434.745117188 l 1
 157.221679688 480.002929688 l 1
514.7109375 480.002929688 m 1
 559.967773438 434.745117188 l 1
 413.237304688 287.990234375 l 1
 367.98046875 333.248046875 l 1
 514.7109375 480.002929688 l 1
258.71875 223.986328125 m 1
 303.9765625 178.728515625 l 1
 157.221679688 31.998046875 l 1
 111.963867188 77.255859375 l 1
 258.71875 223.986328125 l 1
413.237304688 223.986328125 m 1
 559.967773438 77.255859375 l 1
 514.7109375 31.998046875 l 1
 367.98046875 178.728515625 l 1
 413.237304688 223.986328125 l 1
EndSplineSet
Validated: 1
EndChar

StartChar: t.wile
Encoding: 989559 989559 119
Width: 672
VWidth: 1024
Flags: W
HStem: 48.0039 63.9805<180.208 268.13 404.433 490.822>
VStem: 79.9922 63.9893<149.182 291.013> 303.985 64.001<147.266 224> 527.996 64.0039<149.182 291.013>
LayerCount: 2
Fore
SplineSet
188.50390625 467.490234375 m 1
 233.747070312 422.232421875 l 1
 176.162109375 362.577148438 143.98046875 282.899414062 143.981445312 199.984375 c 0
 143.981445312 197.323242188 144.015625 194.663085938 144.079101562 192.001953125 c 1
 143.985351562 192.001953125 l 1
 143.975585938 147.815429688 179.791015625 111.98828125 223.977539062 111.984375 c 0
 268.1640625 111.98828125 303.985351562 147.813476562 303.985351562 192.000976562 c 2
 303.985351562 224.000976562 l 1
 367.986328125 224 l 1
 367.986328125 192 l 2
 367.977539062 147.805664062 403.806640625 111.977539062 448.001953125 111.984375 c 0
 492.189453125 111.98828125 527.99609375 147.815429688 527.99609375 192.001953125 c 1
 527.897460938 192.001953125 l 1
 527.958007812 194.663085938 527.99609375 197.323242188 527.99609375 199.984375 c 0
 527.997070312 282.899414062 495.815429688 362.577148438 438.23046875 422.232421875 c 1
 483.48828125 467.490234375 l 1
 553.07421875 395.829101562 591.998046875 299.873046875 592 199.984375 c 0
 591.9921875 197.32421875 591.961914062 194.663085938 591.901367188 192.001953125 c 1
 592 192.001953125 l 1
 591.998046875 112.474609375 527.529296875 48.005859375 448.001953125 48.00390625 c 0
 404.499023438 48.001953125 363.327148438 67.6650390625 335.986328125 101.501953125 c 1
 308.649414062 67.669921875 267.484375 48.0068359375 223.98828125 48.00390625 c 0
 144.4609375 48.0068359375 79.9931640625 112.475585938 79.9921875 192.001953125 c 1
 80.0634765625 192.001953125 l 1
 80.029296875 194.663085938 79.9921875 197.32421875 79.9921875 199.984375 c 0
 79.9931640625 299.873046875 118.916992188 395.829101562 188.50390625 467.490234375 c 1
EndSplineSet
Validated: 33
EndChar

